<?xml version="1.0" encoding="utf-8"?>
<!-- Generator: Adobe Illustrator 28.4.1, SVG Export Plug-In . SVG Version: 6.00 Build 0)  -->
<svg version="1.1" id="Layer_1" xmlns="http://www.w3.org/2000/svg" xmlns:xlink="http://www.w3.org/1999/xlink" x="0px" y="0px"
	 viewBox="0 0 703.76 383.13" style="enable-background:new 0 0 703.76 383.13;" xml:space="preserve">
<style type="text/css">
	.st0{fill:#FFFFFF;}
	.st1{fill:#030202;}
</style>
<rect y="-0.14" class="st0" width="438.97" height="383.28"/>
<rect x="364.93" y="211.36" class="st0" width="137.07" height="120.09"/>
<path class="st1" d="M517.58,383.13c-72.56,0-145.11,0-217.67,0c0.09-2.78-0.87-5.38-1.52-8.02c-0.94-3.83-0.67-7.39,1.03-11.01
	c3.87-8.25,8.63-15.95,13.83-23.4c4.41-6.32,8.54-12.81,11.65-19.9c3.17-7.22,5.2-14.73,5.98-22.89
	c-11.51,5.94-23.4,7.19-36.08,4.26c2.33,3.14,4.5,5.88,6.48,8.75c2.88,4.17,3.74,6.93,3.2,9.48c-7.61-10.38-9.37-11.94-18.11-16.89
	c-3.53-2-6.94-2.86-10.62-0.44c-0.97,0.64-2.11,1-3.15,1.53c-12.62,6.36-24.06,14.16-31.87,26.34c-0.25,0.39-0.61,0.72-1.25,1.45
	c0.96-6.33,4.59-10.64,7.97-15c3.38-4.36,7.9-7.67,12.1-11.96c-27.64,4.92-50.99-1.33-68.78-23.66c-0.22,0.48-0.32,0.65-0.39,0.84
	c-3.39,9.88-7.27,19.47-15.43,26.61c-1.4,1.22-1.22,2.86-0.2,4.31c0.95,1.35,1.96,2.66,3.04,3.9c5.2,6.03,11.81,10.21,18.58,14.22
	c10.73,6.36,17.34,15.41,17.91,28.3c0.22,5.08,0.09,9.75-4.21,13.55c-2.99,2.65-5.46,5.94-7.24,9.62c-2.75,0-5.51,0-8.26,0
	c-0.36-0.64,0.26-0.87,0.55-1.13c2.02-1.76,4.06-3.5,6.13-5.21c2.51-2.07,3.5-4.6,2.2-7.49c-2.33-5.2-4.71-10.4-7.58-15.31
	c-3.06-5.24-9.3-6.58-14.56-3.67c-2.04,1.13-4.1,2.25-6.08,3.48c-3.31,2.06-6.26,4.48-7.9,8.18c-0.7,1.58-0.8,3.3-1.25,5.03
	c-1.1-0.6-1.68-1.55-2.38-2.37c-5.57-6.46-9.44-13.98-13.44-21.44c-6.32-11.77-15.15-20.85-28.04-25.42
	c-1.7-0.6-3.33-1.38-4.99-2.08c4.85-0.38,9.59-0.27,14.32-0.4c5.95-0.16,11.89-0.1,17.74-1.94c12.45-3.91,21.85-11.29,27.77-22.98
	c2.16-4.27,3.46-8.82,4.22-13.52c0.41-2.57-0.35-3.27-2.65-2.84c-10.58,2.02-20.63,0.38-30.16-4.57c-1.3-0.68-2.66-1.36-3.65-2.7
	c2.41,0.44,4.69,0.9,6.99,1.27c15.3,2.47,29.39-0.29,41.92-9.78c1.07-0.81,1.95-1.92,3.32-2.32l-0.03-0.04
	c0.14,2.84-1.66,4.67-3.4,6.53c-1.97,2.12-2.06,2.77-0.65,5.27c1.66,2.94,3.42,5.81,5.57,8.42c14.92,18.01,33.96,25.55,57.01,21.39
	c15.52-2.8,25.06-15.37,24.39-30.42c-0.49-11.01-3.89-20.99-10.15-30.05c-4.33-6.26-9.63-11.66-14.77-17.21
	c-7.26-7.84-12.07-16.83-12.64-27.74c-0.03-0.66-0.36-1.53,0.54-1.75c0.9-0.23,0.86,0.75,1.02,1.25
	c2.42,7.63,6.78,14.07,12.11,19.94c4.86,5.35,10.14,10.31,14.69,15.94c13.6,16.82,19.54,35.47,13.39,56.93
	c-0.59,2.07,0.25,3.32,1.76,4.38c11.84,8.31,24.42,10.75,37.88,4.35c11.28-5.37,17.31-16.99,15.41-29.25
	c-1.58-10.15-5.94-19.09-12.12-27.2c-1.68-2.21-3.45-4.36-5.32-6.7c2.3,0.1,4,1.07,5.39,2.38c6.69,6.3,13.01,12.95,16.74,21.51
	c4.34,9.95,5.31,20.12,1.3,30.46c-0.58,1.49-0.94,3.03-1.03,4.61c-0.36,6.22-1.67,12.25-3.56,18.16c-1.42,4.45-3.1,8.81-4.59,13.23
	c-1.48,4.4-0.86,6.32,2.88,9.07c3.13,2.3,6.52,3.94,10.41,4.73c10.3,2.11,19.9,5.8,27.84,13.05c2.89,2.64,6.4,2.99,10.07,2.01
	c6.11-1.64,12.16-3.45,17.94-6.07c12.21-5.55,21.93-13.83,28.13-25.89c4.91-9.55,8.34-19.74,12.57-29.58
	c0.28-0.66,0.4-1.37,0.11-2.01c-2.54-5.66-4.1-11.87-9.44-15.93c-1.94-1.48-2.8-3.63-2.05-6.26c0.73-2.56-0.3-4.57-2.48-6.02
	c-2.53-1.69-5.2-2.73-8.34-2.32c-2.99,0.39-5.6-0.51-8.13-2.89c2.67,0,4.92,0.05,7.17-0.01c3.24-0.1,4.93-1.42,5.91-4.46
	c0.64-2,0.86-4.06,0.51-6.12c-0.5-2.97-1.72-5.57-4.81-6.67c-3.13-1.11-6.33-1.23-9.54-0.34c-3.76,1.04-5.52,3.26-5.06,7.12
	c1.04,8.52,2.97,16.61,10.36,22.33c3.56,2.75,3.34,6.13,0.1,9.37c-4.1,4.1-9.3,6.1-14.73,7.46c-16.34,4.08-26.08,14.7-30.76,30.48
	c-0.16,0.53-0.28,1.06-0.47,1.58c-0.15,0.41-0.46,0.73-0.91,0.72c-0.55-0.01-0.57-0.53-0.63-0.91c-1.09-7.29-0.85-14.4,2.8-21.07
	c2.22-4.06,5.34-7.29,9.01-10.07c3.22-2.43,3.92-4.19,2.83-7.4c-4.67-13.69-13.69-22.94-27.76-27c-4.11-1.19-8.35-1.75-12.74-2.62
	c1.42-1.05,2.82-1.32,4.26-1.47c1.57-0.17,3.15-0.25,4.73-0.41c2.57-0.25,3.48-1.35,3.03-3.82c-0.36-1.96-0.76-3.9-1.43-5.8
	c-4.46-12.65-13.11-21.25-25.4-26.3c-10-4.12-20.19-4.37-30.46-1.06c-3.31,1.06-3.71,1.95-2.51,5.18c0.62,1.67,1.44,3.27,2.11,4.92
	c0.32,0.8,0.57,1.9-0.83,1.6c-2.31-0.49-4.68-0.11-6.96-0.69c-2.46-0.62-3.31-1.75-2.6-4.19c1.09-3.69,0.84-7.33,0.18-11.02
	c-0.38-2.16-0.7-4.35-0.92-6.53c-0.07-0.7-0.74-1.67-0.03-2.08c0.65-0.37,1.55,0.24,2.31,0.55c1.7,0.7,3.13,2.04,5.06,2.18
	c0.08,0.07,0.2,0.22,0.22,0.2c0.22-0.15,0.11-0.27-0.07-0.36c-0.13-0.93-0.75-1.61-1.2-2.37c-4.05-6.87-8.19-13.69-12.17-20.59
	c-5.64-9.77-11.08-19.63-14.07-30.63c-2.13-7.84-2.97-15.66,0.08-23.48c1.63-4.17,3.9-7.93,7.15-11.55
	c0.29,1.54-0.19,2.51-0.52,3.52c-2.13,6.59-3.44,13.25-2.55,20.27c1.04,8.19,7.75,15.06,15.49,15.51
	c8.66,0.5,15.76-4.91,17.57-13.59c1.63-7.79-0.69-14.68-5.3-20.91c-4.3-5.81-8.98-11.32-13.77-16.72c-1.99-2.24-1.73-3.42,1.05-4.26
	c7.79-2.35,15.65-2.86,23.58-0.74c0.63,0.17,1.22,0.38,1.71-0.18c0.52-0.6,0.41-1.3,0.08-1.94c-3.41-6.76-8.17-12.03-15.72-14.23
	c-2.3-0.67-4.59-1.35-7.01-2.07c1.56-2.8,3.12-5.47,4.52-8.2c0.83-1.61,0.36-2.32-1.42-2.39c-1.16-0.05-2.34,0.01-3.5,0.13
	c-15.77,1.63-31.2,4.9-46.4,9.36c-7.76,2.28-14.62,5.96-19.54,12.64c-4.08,5.54-7.93,11.23-11.6,17.05
	c-11.34,18.01-19.17,37.68-27.13,57.29c-1.03,2.54-1.69,5.22-2.62,8.17c2.54-1.58,4.86-2.79,7.55-3.84
	c-0.17,0.68-0.25,1.07-0.36,1.45c-1.83,6.19-3.65,12.38-5.76,18.49c-1.13,3.27-0.57,4.2,2.77,4.89c1.01,0.21,2.02,0.43,3.03,0.63
	c6.9,1.35,12.99,4.79,19.33,7.58c1.22,0.54,2.7,1.97,3.66,1.25c0.93-0.7,0.1-2.57,0.04-3.93c-0.11-2.75-0.86-5.55,0.55-8.3
	c0.84,0.86,0.63,1.91,0.83,2.81c1.76,7.71,5.13,14.77,8.62,21.79c3.27,6.58,6.8,13.04,9.12,20.05c-0.11,0.1-0.22,0.2-0.32,0.3
	c-1.2-0.56-1.75-1.69-2.41-2.73c-8.66-13.68-20.72-21.3-37.26-21.8c-15.3-0.47-29.27,3.1-41.93,11.73c-0.96,0.66-1.97,1.2-3.43,0.57
	c12.14-12.75,27.15-18.24,44.57-18.51c-0.41-0.35-0.53-0.52-0.7-0.59c-0.5-0.23-1-0.45-1.52-0.63c-9.44-3.23-19.14-4.53-29.05-3.26
	c-16.89,2.17-29.12,10.89-35.95,26.63c-5.22,12.03-4.91,24.5-2.28,37.05c0.91,4.35,2.05,8.65,3.12,13.12
	c-1.11-0.59-1.64-1.48-2.26-2.28c-4.85-6.31-7.99-13.42-9.83-21.15c-0.71-2.97-1.75-3.32-4.15-1.57c-4.94,3.6-9.12,7.92-12.36,13.14
	c-4.69,7.55-6.02,15.96-6.57,24.62c-0.47,7.35-1.21,14.76-4.28,21.52c-3.67,8.09-5.2,16.61-6.36,25.27
	c-0.54,4.02,0.6,7.28,4.49,9.31c3.09,1.61,5.14,4.28,6.64,7.4c4.67,9.67,11.83,17.14,20.55,23.22c7.62,5.32,16.08,8.91,24.74,12.1
	c0.6,0.22,1.73-0.05,1.74,1.16c-7.99,0-15.97,0-23.96,0c-2.73-1.55-5.42-3.16-8.19-4.64c-1.76-0.94-2.53-0.42-2.57,1.56
	c-0.02,1.03,0.01,2.05,0.02,3.08c-2.62,0-5.23,0-7.85,0c0.59-2.14,1.73-4.03,2.83-5.92c1.63-2.82,1.61-3.39-0.83-5.66
	c-7.06-6.54-12.88-14.08-18.21-22.05c-9.19-13.75-10.55-28.31-4.66-43.6c3.79-9.84,5.84-19.99,6.5-30.49
	c0.45-7.13,2.4-13.92,5.8-20.25c4.5-8.38,11.18-14.53,19.45-19.07c1.99-1.1,4.25-2.24,4.83-4.56c1.02-4.05,2.36-8,3.31-12.06
	c0.21-0.9,0.1-1.93-0.05-2.87c-0.96-5.99-2.57-11.8-4.8-17.44c-5.3-13.37-14.25-23.85-25.62-32.42
	c-11.16-8.42-23.63-13.69-37.55-15.2c-11.43-1.24-22.61,0.36-33.63,3.48c-4.63,1.31-9.03,3.21-13.59,4.7
	C0.04,107.06,0.05,54.41,0,1.75c0-1.55,0.35-1.9,1.9-1.9C153.41-0.1,304.93-0.1,456.45-0.1c7.6,3.95,15.29,7.73,22.68,12.08
	c5.24,3.09,10.46,6.22,15.55,9.63c-0.64,0.73-1.45,0.75-2.14,0.97c-5.29,1.7-10.62,3.27-15.88,5.05c-5.35,1.81-10.1,4.56-13.71,9.09
	c-5,6.25-5.66,13.38-4.4,20.89c2,11.93,10.17,18.24,19.58,18.96c12.21,0.93,24.47,0.78,36.7-0.49c15.85-1.65,30.06,2.41,42.55,12.41
	c7.79,6.24,13.95,14.04,20.6,21.37c2.57,2.84,5,5.81,7.52,8.76c-0.6,0.32-0.98,0.12-1.36,0.03c-11.17-2.66-22.43-4.05-33.94-2.75
	c-16.08,1.82-29.53,8.92-41.14,19.92c-0.85,0.8-0.78,1.25-0.03,2.08c6.79,7.54,14.35,14.23,22.38,20.42
	c22.69,17.49,48.19,29.37,75.43,37.76c18.29,5.64,36.96,9.54,55.94,11.92c11.41,1.43,22.87,2.23,34.37,2.32
	c2.16,0.02,4.32-0.31,6.63,0c-0.74,1.58-1.66,2.85-2.64,4.07c-14.97,18.88-32.47,35.15-51.8,49.45
	c-26.98,19.96-56.1,36.29-86.5,50.41c-34.49,16.02-70.27,28.49-106.84,38.79c-3.22,0.91-6.5,1.63-9.69,2.94
	c0.31,0.44,0.51,0.8,0.78,1.1c8.71,9.94,19.62,16,32.6,18.2c10.88,1.84,21.9,2.16,32.9,2.5c2.48,0.08,4.95,0.14,7.43,0.21
	c0.47,0.01,1.07-0.06,1.29,0.4c0.23,0.5-0.3,0.88-0.59,1.23C519.7,380.8,518.63,381.96,517.58,383.13z M456.55,269.22
	c-0.43,1.2-1.25,1.73-1.96,2.35c-2.44,2.13-5.5,2.79-8.54,3.32c-1.53,0.27-1.55,0.78-1,1.99c1.11,2.44,2.1,4.93,3.14,7.4
	c4.11,9.75,8.15,19.52,12.34,29.24c2.16,5.01,6.01,7.12,11.21,6.48c3.67-0.45,6.9-4,7.73-8.65c0.61-3.45-0.35-6.68-1.72-9.81
	c-4.11-9.37-8.14-18.79-12.42-28.08c-1.75-3.79-1.71-6.97,1.06-10.26c3.99-4.73,4.91-9.6,0.66-15.4c-1.5-2.05-2.35-4.43-2.1-6.97
	c0.33-3.26-0.93-5.5-3.62-7.26c-3.01-1.97-5.29-4.61-6.12-8.24c-0.28-1.24-1.04-2.05-2.12-2.64c-3.79-2.1-7.54-1.76-11.21,0.25
	c-1.7,0.93-2.87,0.86-3.81-1.05c-5.59-11.27-11.68-22.28-17.51-33.42c-2.9-5.54-2.75-11.26,0.48-16.75
	c0.98-1.66,2.07-3.25,3.02-4.92c3.77-6.57,4.96-13.59,3.7-21.08c-1.09-6.47-3.99-12.26-6.62-18.14
	c-8.16-18.22-18.3-35.4-28.17-52.71c-0.14-0.24-0.26-0.48-0.42-0.71c-0.34-0.49-0.77-0.82-1.39-0.55c-0.67,0.29-0.89,0.83-0.71,1.52
	c0.14,0.53,0.32,1.05,0.48,1.58c2.71,9.03,6.69,17.58,10.18,26.32c4.74,11.86,9.58,23.69,14.47,35.49c1.27,3.08,0.12,5.07-3.26,5.09
	c-1.96,0.01-2.67-1.42-3.35-2.89c-8.73-19.05-17.45-38.1-26.17-57.16c-0.6-1.31-1.11-2.66-1.74-3.96c-0.41-0.84-1.15-1.21-2.06-0.8
	c-0.89,0.4-1.13,1.13-0.82,2.06c0.48,1.43,1.03,2.85,1.43,4.3c2.77,10.14,6.13,20.1,9.73,29.97c3.67,10.07,7.68,20.01,11.78,29.91
	c0.92,2.23,0.59,3.08-1.56,4.11c-2.9,1.38-4.72,0.68-6.01-2.46c-4.38-10.68-8.74-21.36-13.06-32.06
	c-3.89-9.62-7.72-19.25-11.57-28.89c-0.41-1.03-0.91-1.97-2.23-1.53c-1.08,0.36-0.84,1.29-0.63,2.1c1.42,5.59,2.83,11.18,4.3,16.76
	c4.27,16.29,9.37,32.32,15.27,48.09c1.16,3.1-0.01,4.78-3.25,4.89c-1.92,0.06-2.55-1.29-3.18-2.71
	c-6.2-14.09-11.64-28.48-16.47-43.1c-2.18-6.58-4.45-13.14-6.67-19.71c-0.25-0.74-0.55-1.53-1.52-1.34
	c-0.96,0.19-1.28,0.96-1.23,1.88c0.02,0.34,0.1,0.68,0.15,1.02c1,7.43,2.4,14.78,3.89,22.12c3.06,15.04,6.92,29.84,12.82,44.05
	c5.16,12.43,13.81,20.81,27.43,23.39c6.4,1.21,10.37,5.27,12.52,11.3c4.14,11.57,8.33,23.14,12.5,34.7
	c0.58,1.62,1.28,3.18,2.39,4.54c0.63,0.77,1.12,0.8,1.75-0.05c1.26-1.72,2.6-3.39,4.17-4.85c1.89-1.76,4.08-2.63,7.13-2.12
	c-1.72,1.34-3.15,2.47-4.6,3.57c-1.91,1.45-2.64,3.37-2.06,5.64c1.37,5.39,2.01,10.71,0.74,16.29c-0.8,3.51,1.62,5.44,5.21,4.74
	c2.71-0.52,5.29-1.45,7.8-2.6c0.42-0.19,0.83-0.77,1.22-0.23c0.39,0.52-0.28,0.82-0.58,1.14c-1.3,1.35-3,2.17-4.49,3.28
	c-2.79,2.06-3.95,5.88-2.86,9.22c1.09,3.32,4.11,5.44,7.72,5.36c2.09-0.05,4.07-0.53,5.93-1.53
	C453.43,269.32,454.82,268.76,456.55,269.22z M161.41,128.19c-11.77,0.19-23.29-1.55-34.7-4.28c-3.25-0.78-3.85-1.47-3.66-4.84
	c0.26-4.6,0.99-9.16,0.88-13.79c-0.09-3.6,1.04-4.86,4.68-5.12c8.1-0.58,16.2-1.04,24.3-1.55c0.41-0.03,0.83,0,1.24-0.04
	c1.63-0.19,2.85-0.89,3.39-2.56c0.53-1.64-0.19-2.84-1.35-3.81c-4.68-3.93-9.98-5.11-15.81-3.22c-4.19,1.36-8.38,2.67-12.75,3.31
	c-1,0.15-2.22,0.69-2.87-0.76c-0.93-2.05-0.1-4.03,2.01-4.81c2.77-1.02,5.37-0.38,8.04,0.52c3.88,1.32,5.8,0.62,7.66-2.98
	c3.25-6.29,6.32-12.66,9.47-19.01c0.84-1.7,0.61-3.28-0.41-4.86c-2.77-4.28-8.17-6.67-13.22-5.69c-3.37,0.65-6.73,1.39-10.09,2.07
	c-1.22,0.25-2.47,0.23-2.93-1.18c-0.45-1.38-0.3-2.76,1.04-3.69c0.44-0.3,0.98-0.53,1.51-0.63c2.03-0.37,4.06-0.76,6.1-0.96
	c2.13-0.21,3.97-0.78,5.46-2.46c1.8-2.03,4.12-3.41,6.56-4.57c2.76-1.3,5.73-1.86,8.68-2.54c2.16-0.5,2.92-1.73,2.47-3.74
	c-1.28-5.73-8.83-10.78-14.52-9.72c-12.23,2.28-24.45,4.54-36.68,6.82c-3.27,0.61-6.31,0.74-8.24-2.77c-0.6-1.1-1.89-1.02-3-0.87
	c-0.94,0.13-1.12,0.93-1.22,1.69c-0.52,3.87-1.86,7.44-3.74,10.84c-1.55,2.8-2.16,5.77-1.34,8.95c0.68,2.63,2.01,3.7,4.84,3.86
	c2.17,0.12,3.7-0.99,4.5-3.45c0.87-2.67,1.86-5.32,1.99-8.18c0.07-1.43,0.48-2.76,2.23-3.01c2.79-0.4,5.57-0.91,8.37-1.17
	c2.58-0.24,4,1.11,4.43,3.84c0.3,1.89-0.55,3.01-3.05,3.66c-2.86,0.75-5.76,1.3-8.61,2.07c-1.44,0.39-3.5,0.41-3.35,2.62
	c0.14,2.1,2,2.59,3.7,3.02c0.46,0.12,0.96,0.08,1.44,0.1c2.65,0.14,5.2-0.44,7.7-1.21c1.53-0.47,2.19,0.09,2.4,1.57
	c0.33,2.36-0.88,4.09-3.43,4.52c-6.37,1.06-12.68,2.49-19.19,2.59c-3.12,0.05-3.77,1.3-2.39,4.07c1.41,2.84,2.46,5.82,3.47,8.81
	c1.41,4.16,2.57,8.42,4.59,12.35c1.91,3.7,3.78,4.45,7.76,3.25c1.64-0.49,3.24-1.15,4.9-1.58c1.63-0.42,3.29,0.44,3.48,1.75
	c0.24,1.64-0.41,2.82-2.1,3.28c-0.4,0.11-0.8,0.18-1.21,0.27c-8.52,1.88-17.04,3.77-25.56,5.63c-1.15,0.25-2.14,0.58-2.34,1.92
	c-0.21,1.39,0.55,2.15,1.68,2.75c2.63,1.4,5.38,1.52,8.22,0.94c5.79-1.19,11.57-2.4,17.36-3.6c3.24-0.67,4.14,0,4.14,3.37
	c0,4.06-0.12,8.12-0.27,12.17c-0.08,2.23-0.96,2.89-3.22,2.45c-10.6-2.05-21.17-4.27-32.04-4.21c-1.84,0.01-2.27-1.04-1.86-2.58
	c0.36-1.39,0.86-2.75,1.3-4.13c2.21-6.9,1.76-8.3-4-12.59c-2.43-1.81-2.44-2.17-0.33-4.45c2.95-3.18,5.86-6.39,8.79-9.58
	c1.03-1.13,1.72-2.35,1.02-3.91c-1.87-4.17-9.69-7.55-13.79-4.58c-3.28,2.37-6.85,4.34-10.29,6.5c-1.75,1.1-3.5,2.19-5.21,3.34
	c-0.94,0.63-1.81,1.42-1.35,2.71c0.43,1.23,1.48,1.78,2.71,1.92c0.46,0.05,0.95-0.09,1.41-0.19c3.11-0.73,5.99-2.01,8.68-3.72
	c0.84-0.54,1.73-1.1,2.65-0.38c0.91,0.71,0.32,1.63,0.04,2.46c-0.6,1.75-1.13,3.53-1.8,5.26c-0.93,2.44-0.72,4.65,0.79,6.83
	c1.91,2.78,2.42,5.96,2.17,9.26c-0.12,1.57-0.38,3.14-0.63,4.7c-0.51,3.22-1.32,4.04-4.49,4.76c-3.35,0.76-6.69,1.54-10.04,2.32
	c-1.1,0.26-2.19,0.65-2.41,1.93c-0.23,1.32,0.83,1.94,1.7,2.59c2.16,1.61,4.54,1.81,7.05,1.05c2.76-0.84,5.47-1.86,8.27-2.51
	c8.47-1.98,16.83-0.97,25.06,1.36c13.84,3.92,27.24,9.05,40.39,14.85c2.61,1.15,5.28,1.79,8.19,1.59
	c6.45-0.45,12.57-2.18,18.58-4.44c3.16-1.18,6.16-2.71,9.2-4.15c1.14-0.54,1.67-1.47,1.5-2.67c-0.18-1.26-1.26-1.24-2.24-1.29
	C167.04,128.52,164.23,128.35,161.41,128.19z M339.58,56.09c0.21,0.02,0.42,0.08,0.62,0.04c0.6-0.13,1.47,0.73,1.78-0.26
	c0.28-0.92-0.41-1.52-1.2-1.92c-0.25-0.12-0.48-0.27-0.72-0.41c-26.13-15.78-53.74-28.59-81.55-41.01
	c-2.08-0.93-3.64-0.65-5.21,0.88c-2.71,2.64-5.36,5.36-8.25,7.79c-10.23,8.61-19.95,17.73-29.03,27.56
	c-10.17,11-18.58,23.35-27.49,35.32c-0.2,0.27-0.48,0.54-0.56,0.86c-0.22,0.83-0.07,1.42,1,1.07c0.46-0.15,0.89-0.36,1.34-0.55
	c16.63-6.91,33.4-13.42,50.69-18.54c21.91-6.5,44.21-10.74,67.06-11.66C318.56,54.83,329.09,54.97,339.58,56.09z M179.97,334.2
	c-0.21-0.78-0.7-0.97-1.1-1.16c-5.24-2.52-9.18-6.3-11.96-11.47c-1.73-3.23-3.18-3.44-6.45-1.71c-2.72,1.45-5.23,3.28-8.16,4.36
	c-1.25,0.46-1.4,1.38-0.67,2.47c3.42,5.16,4.88,10.99,5.81,17c0.07,0.46-0.11,1.07,0.4,1.31c0.53,0.24,0.86-0.33,1.18-0.62
	C165.01,339.05,171.91,335.58,179.97,334.2z M68.33,41.3c-1.87,0-3.18-0.01-4.48,0c-0.92,0-1.82,0.12-2.31,1.03
	c-0.53,0.98-0.22,1.88,0.44,2.66c3.51,4.2,7.52,7.78,12.65,9.92c1.45,0.6,2.94,0.83,4.25-0.34c1.38-1.24,1.99-2.8,1.51-4.63
	c-0.83-3.17-2.68-5.66-5.29-7.6c-1.38-1.03-2.97-1.34-4.67-1.2C69.54,41.22,68.65,41.28,68.33,41.3z"/>
<path class="st1" d="M5.41,383.13c-2.66-12.98-3.97-26.1-3.61-39.35c0.5-18.06,3.79-35.52,11.9-51.82
	c4.4-8.84,9.6-17.18,16.58-24.26c9.48-9.62,20.96-14.69,34.54-14.55c4.11,0.04,8.21,0.57,12.5,2.82c-2.42,0.37-4.34,0.59-6.22,0.95
	c-12.78,2.42-23.17,9.06-32.1,18.26c-12.78,13.18-19.49,29.18-22.07,47.17c-2.91,20.26-0.98,40.03,5.54,59.39
	c0.15,0.45,0.2,0.93,0.29,1.39C16.97,383.13,11.19,383.13,5.41,383.13z"/>
<path class="st1" d="M0.04,177.89c2.93-0.92,5.84-1.96,8.81-2.75c21.12-5.65,41.27-3.71,60.06,8c8.5,5.3,14.99,12.64,20.3,21.07
	c1.03,1.63,2,3.29,3,4.93c0.38,0.63,0.78,1.26,0.55,2.22c-3.15-2-5.75-4.42-8.34-6.87c-11.93-11.29-25.95-18.44-42.25-20.67
	c-13.76-1.88-27.13,0.06-39.99,5.36c-0.69,0.28-1.31,0.78-2.12,0.68C0.04,185.87,0.04,181.88,0.04,177.89z"/>
<path class="st1" d="M0.04,246.44c5.19-4.92,10.57-9.58,16.65-13.42c9.71-6.13,20.11-9.78,31.72-9.24
	c8.78,0.41,17.02,2.89,24.78,6.98c0.53,0.28,1.34,0.52,1.15,1.25c-0.23,0.88-1.06,0.37-1.57,0.27c-12.02-2.47-23.64-0.63-35.06,3.24
	c-15.76,5.35-27.57,15.6-36.41,29.52c-0.3,0.47-0.23,1.45-1.25,1.23C0.04,259.66,0.04,253.05,0.04,246.44z"/>
<path class="st1" d="M50.43,383.13c-1.1-7.58-1.57-15.18-0.83-22.82c0.58-6.03,1.36-12.02,3.8-17.65c2.09-4.8,5.31-8.58,9.91-11.22
	c0.65,0.88,0.13,1.57-0.05,2.24c-3.28,12.52-4.91,25.23-4.11,38.18c0.23,3.77,0.78,7.51,1.18,11.27
	C57.04,383.13,53.73,383.13,50.43,383.13z"/>
<path class="st1" d="M72.32,383.13c0.01-3.22,2.2-8.74,4.4-11.01c0.74,3.7,1.48,7.36,2.21,11.01
	C76.73,383.13,74.52,383.13,72.32,383.13z"/>
<path class="st1" d="M253.6,75.43c2.68-3.47,5.99-6.02,10.44-6.63c4.57-0.63,9.4,2.89,10.57,7.66c-1.28-0.67-2.42-1.36-3.64-1.88
	c-5.14-2.19-10.2-1.17-15.24,0.45c-0.65,0.21-1.31,0.37-1.96,0.56C253.71,75.54,253.66,75.48,253.6,75.43z"/>
<path class="st1" d="M253.77,75.59c-0.13,0.2-0.27,0.31-0.47,0.07c0.1-0.08,0.2-0.16,0.3-0.23
	C253.66,75.48,253.71,75.54,253.77,75.59z"/>
<path class="st1" d="M233.62,228.49c0.03,0.16,0.06,0.32,0.08,0.48c-0.14-0.06-0.27-0.12-0.41-0.18
	C233.41,228.69,233.51,228.59,233.62,228.49z"/>
<path class="st1" d="M197.07,255.96c0.01-0.06,0.02-0.12,0.05-0.16c0.01-0.02,0.08-0.01,0.12-0.01c-0.07,0.05-0.13,0.1-0.2,0.14
	C197.04,255.92,197.07,255.96,197.07,255.96z"/>
<path class="st1" d="M249.94,352.58c0.3-2.29,1.63-4.09,3.07-5.7c6.39-7.15,14.52-11.64,23.4-14.89c1.46-0.53,3.03-0.15,4.43,0.48
	c7.68,3.46,12.23,9.43,13.97,17.66c-3.56-4.71-8.39-7.54-13.73-9.7c-2.07-0.84-4.08-0.92-6.24-0.4c-8.7,2.1-16.48,6-23.39,11.67
	c-0.45,0.37-0.77,1.03-1.53,0.86L249.94,352.58z"/>
<path class="st1" d="M249.91,352.56c-0.03,0.1-0.06,0.2-0.09,0.29c-0.31-0.24-0.02-0.22,0.11-0.27
	C249.94,352.58,249.91,352.56,249.91,352.56z"/>
<path class="st1" d="M127.46,80.25c-1.2-0.15-2.62-0.1-2.82-1.92c-0.18-1.63,0.94-2.17,2.18-2.5c1.19-0.32,2.42-0.5,3.63-0.73
	c1.23-0.23,2.24-0.79,2.55-2.08c0.32-1.34,0.04-2.54-1.01-3.57c-1.4-1.38-3.17-1.52-4.94-1.74c-1.03-0.13-2.15-0.08-2.31-1.5
	c-0.16-1.48,0.91-1.91,2.02-2.11c2.09-0.37,3.99-1.5,6.17-1.55c2.76-0.06,4.09,1.35,3.3,3.99c-1.05,3.54-1.89,7.16-3.35,10.58
	C132,79.16,130.1,80.27,127.46,80.25z"/>
<path class="st1" d="M136.65,35.45c3.44-0.11,3.49-0.03,2.44,2.63c-1.29,3.26-2.42,3.93-5.99,3.57c-1.71-0.18-3.4-0.21-5.11,0.22
	c-2.24,0.55-4.37-1.59-4.06-3.9c0.08-0.57,0.36-0.91,0.91-0.92C129.05,36.92,133.08,35.5,136.65,35.45z"/>
<path class="st1" d="M106.8,73.42c-2.86,0.19-3.02-1.64-3.39-3.09c-0.41-1.61,0.71-2.12,2.07-2.39c2.08-0.41,4.14-0.91,6.21-1.36
	c0.92-0.2,1.93-0.66,2.56,0.47c0.62,1.11,0.54,2.24-0.25,3.27c-0.97,1.25-2.33,1.87-3.81,2.26
	C108.87,72.92,107.54,73.23,106.8,73.42z"/>
<path class="st1" d="M109.28,84.19c-2.25-0.01-3.89-2.22-3.28-4.39c0.18-0.65,0.58-1.31,1.17-1.3c1.98,0.03,3.89-0.72,5.91-0.37
	c1.78,0.32,2.04,1.39,1.66,2.85C114.22,82.94,112.03,84.2,109.28,84.19z"/>
</svg>
