<?xml version="1.0" encoding="utf-8"?>
<!-- Generator: Adobe Illustrator 28.4.1, SVG Export Plug-In . SVG Version: 6.00 Build 0)  -->
<svg version="1.1" id="Layer_1" xmlns="http://www.w3.org/2000/svg" xmlns:xlink="http://www.w3.org/1999/xlink" x="0px" y="0px"
	 viewBox="0 0 703.8 383.1" style="enable-background:new 0 0 703.8 383.1;" xml:space="preserve">
<rect x="264.8" y="-0.1" width="439" height="383.3"/>
<rect x="201.8" y="51.5" width="137.1" height="120.1"/>
<path d="M186.2-0.1c72.6,0,145.1,0,217.7,0c-0.1,2.8,0.9,5.4,1.5,8c0.9,3.8,0.7,7.4-1,11c-3.9,8.2-8.6,16-13.8,23.4
	c-4.4,6.3-8.5,12.8-11.6,19.9c-3.2,7.2-5.2,14.7-6,22.9c11.5-5.9,23.4-7.2,36.1-4.3c-2.3-3.1-4.5-5.9-6.5-8.8
	c-2.9-4.2-3.7-6.9-3.2-9.5c7.6,10.4,9.4,11.9,18.1,16.9c3.5,2,6.9,2.9,10.6,0.4c1-0.6,2.1-1,3.1-1.5C443.8,72,455.2,64.2,463,52
	c0.2-0.4,0.6-0.7,1.2-1.5c-1,6.3-4.6,10.6-8,15s-7.9,7.7-12.1,12c27.6-4.9,51,1.3,68.8,23.7c0.2-0.5,0.3-0.6,0.4-0.8
	c3.4-9.9,7.3-19.5,15.4-26.6c1.4-1.2,1.2-2.9,0.2-4.3c-0.9-1.4-2-2.7-3-3.9c-5.2-6-11.8-10.2-18.6-14.2C496.7,45,490,35.9,489.5,23
	c-0.2-5.1-0.1-9.8,4.2-13.5c3-2.6,5.5-5.9,7.2-9.6c2.8,0,5.5,0,8.3,0c0.4,0.6-0.3,0.9-0.5,1.1c-2,1.8-4.1,3.5-6.1,5.2
	c-2.5,2.1-3.5,4.6-2.2,7.5c2.3,5.2,4.7,10.4,7.6,15.3c3.1,5.2,9.3,6.6,14.6,3.7c2-1.1,4.1-2.2,6.1-3.5c3.3-2.1,6.3-4.5,7.9-8.2
	c0.7-1.6,0.8-3.3,1.2-5c1.1,0.6,1.7,1.5,2.4,2.4c5.6,6.5,9.4,14,13.4,21.4c6.3,11.8,15.1,20.9,28,25.4c1.7,0.6,3.3,1.4,5,2.1
	c-4.8,0.4-9.6,0.3-14.3,0.4c-6,0.2-11.9,0.1-17.7,1.9c-12.5,3.9-21.9,11.3-27.8,23c-2.2,4.3-3.5,8.8-4.2,13.5
	c-0.4,2.6,0.3,3.3,2.6,2.8c10.6-2,20.6-0.4,30.2,4.6c1.3,0.7,2.7,1.4,3.6,2.7c-2.4-0.4-4.7-0.9-7-1.3c-15.3-2.5-29.4,0.3-41.9,9.8
	c-1.1,0.8-1.9,1.9-3.3,2.3l0,0c-0.1-2.8,1.7-4.7,3.4-6.5c2-2.1,2.1-2.8,0.6-5.3c-1.7-2.9-3.4-5.8-5.6-8.4c-14.9-18-34-25.5-57-21.4
	c-15.5,2.8-25.1,15.4-24.4,30.4c0.5,11,3.9,21,10.1,30.1c4.3,6.3,9.6,11.7,14.8,17.2c7.3,7.8,12.1,16.8,12.6,27.7
	c0,0.7,0.4,1.5-0.5,1.8c-0.9,0.2-0.9-0.8-1-1.2c-2.4-7.6-6.8-14.1-12.1-19.9c-4.9-5.4-10.1-10.3-14.7-15.9
	c-13.6-16.8-19.5-35.5-13.4-56.9c0.6-2.1-0.2-3.3-1.8-4.4c-11.8-8.3-24.4-10.8-37.9-4.4c-11.3,5.4-17.3,17-15.4,29.2
	c1.6,10.2,5.9,19.1,12.1,27.2c1.7,2.2,3.5,4.4,5.3,6.7c-2.3-0.1-4-1.1-5.4-2.4c-6.7-6.3-13-12.9-16.7-21.5
	c-4.3-10-5.3-20.1-1.3-30.5c0.6-1.5,0.9-3,1-4.6c0.4-6.2,1.7-12.2,3.6-18.2c1.4-4.5,3.1-8.8,4.6-13.2c1.5-4.4,0.9-6.3-2.9-9.1
	c-3.1-2.3-6.5-3.9-10.4-4.7c-10.3-2.1-19.9-5.8-27.8-13c-2.9-2.6-6.4-3-10.1-2c-6.1,1.6-12.2,3.5-17.9,6.1
	c-12.2,5.5-21.9,13.8-28.1,25.9c-4.9,9.5-8.3,19.7-12.6,29.6c-0.3,0.7-0.4,1.4-0.1,2c2.5,5.7,4.1,11.9,9.4,15.9
	c1.9,1.5,2.8,3.6,2,6.3c-0.7,2.6,0.3,4.6,2.5,6c2.5,1.7,5.2,2.7,8.3,2.3c3-0.4,5.6,0.5,8.1,2.9c-2.7,0-4.9-0.1-7.2,0
	c-3.2,0.1-4.9,1.4-5.9,4.5c-0.6,2-0.9,4.1-0.5,6.1c0.5,3,1.7,5.6,4.8,6.7c3.1,1.1,6.3,1.2,9.5,0.3c3.8-1,5.5-3.3,5.1-7.1
	c-1-8.5-3-16.6-10.4-22.3c-3.6-2.8-3.3-6.1-0.1-9.4c4.1-4.1,9.3-6.1,14.7-7.5c16.3-4.1,26.1-14.7,30.8-30.5c0.2-0.5,0.3-1.1,0.5-1.6
	c0.1-0.4,0.5-0.7,0.9-0.7c0.5,0,0.6,0.5,0.6,0.9c1.1,7.3,0.9,14.4-2.8,21.1c-2.2,4.1-5.3,7.3-9,10.1c-3.2,2.4-3.9,4.2-2.8,7.4
	c4.7,13.7,13.7,22.9,27.8,27c4.1,1.2,8.4,1.8,12.7,2.6c-1.4,1.1-2.8,1.3-4.3,1.5c-1.6,0.2-3.1,0.2-4.7,0.4c-2.6,0.2-3.5,1.4-3,3.8
	c0.4,2,0.8,3.9,1.4,5.8c4.5,12.6,13.1,21.2,25.4,26.3c10,4.1,20.2,4.4,30.5,1.1c3.3-1.1,3.7-1.9,2.5-5.2c-0.6-1.7-1.4-3.3-2.1-4.9
	c-0.3-0.8-0.6-1.9,0.8-1.6c2.3,0.5,4.7,0.1,7,0.7c2.5,0.6,3.3,1.8,2.6,4.2c-1.1,3.7-0.8,7.3-0.2,11c0.4,2.2,0.7,4.4,0.9,6.5
	c0.1,0.7,0.7,1.7,0,2.1c-0.6,0.4-1.5-0.2-2.3-0.6c-1.7-0.7-3.1-2-5.1-2.2c-0.1-0.1-0.2-0.2-0.2-0.2c-0.2,0.1-0.1,0.3,0.1,0.4
	c0.1,0.9,0.8,1.6,1.2,2.4c4,6.9,8.2,13.7,12.2,20.6c5.6,9.8,11.1,19.6,14.1,30.6c2.1,7.8,3,15.7-0.1,23.5c-1.6,4.2-3.9,7.9-7.1,11.6
	c-0.3-1.5,0.2-2.5,0.5-3.5c2.1-6.6,3.4-13.2,2.5-20.3c-1-8.2-7.8-15.1-15.5-15.5c-8.7-0.5-15.8,4.9-17.6,13.6
	c-1.6,7.8,0.7,14.7,5.3,20.9c4.3,5.8,9,11.3,13.8,16.7c2,2.2,1.7,3.4-1,4.3c-7.8,2.3-15.6,2.9-23.6,0.7c-0.6-0.2-1.2-0.4-1.7,0.2
	c-0.5,0.6-0.4,1.3-0.1,1.9c3.4,6.8,8.2,12,15.7,14.2c2.3,0.7,4.6,1.4,7,2.1c-1.6,2.8-3.1,5.5-4.5,8.2c-0.8,1.6-0.4,2.3,1.4,2.4
	c1.2,0,2.3,0,3.5-0.1c15.8-1.6,31.2-4.9,46.4-9.4c7.8-2.3,14.6-6,19.5-12.6c4.1-5.5,7.9-11.2,11.6-17.1c11.3-18,19.2-37.7,27.1-57.3
	c1-2.5,1.7-5.2,2.6-8.2c-2.5,1.6-4.9,2.8-7.5,3.8c0.2-0.7,0.2-1.1,0.4-1.4c1.8-6.2,3.7-12.4,5.8-18.5c1.1-3.3,0.6-4.2-2.8-4.9
	c-1-0.2-2-0.4-3-0.6c-6.9-1.4-13-4.8-19.3-7.6c-1.2-0.5-2.7-2-3.7-1.2c-0.9,0.7-0.1,2.6,0,3.9c0.1,2.8,0.9,5.6-0.5,8.3
	c-0.8-0.9-0.6-1.9-0.8-2.8c-1.8-7.7-5.1-14.8-8.6-21.8c-3.3-6.6-6.8-13-9.1-20.1c0.1-0.1,0.2-0.2,0.3-0.3c1.2,0.6,1.8,1.7,2.4,2.7
	c8.7,13.7,20.7,21.3,37.3,21.8c15.3,0.5,29.3-3.1,41.9-11.7c1-0.7,2-1.2,3.4-0.6c-12.1,12.8-27.2,18.2-44.6,18.5
	c0.4,0.4,0.5,0.5,0.7,0.6c0.5,0.2,1,0.4,1.5,0.6c9.4,3.2,19.1,4.5,29,3.3c16.9-2.2,29.1-10.9,36-26.6c5.2-12,4.9-24.5,2.3-37.1
	c-0.9-4.4-2.1-8.6-3.1-13.1c1.1,0.6,1.6,1.5,2.3,2.3c4.9,6.3,8,13.4,9.8,21.2c0.7,3,1.8,3.3,4.2,1.6c4.9-3.6,9.1-7.9,12.4-13.1
	c4.7-7.5,6-16,6.6-24.6c0.5-7.4,1.2-14.8,4.3-21.5c3.7-8.1,5.2-16.6,6.4-25.3c0.5-4-0.6-7.3-4.5-9.3c-3.1-1.6-5.1-4.3-6.6-7.4
	c-4.7-9.7-11.8-17.1-20.5-23.2c-7.6-5.3-16.1-8.9-24.7-12.1c-0.6-0.2-1.7,0-1.7-1.2c8,0,16,0,24,0c2.7,1.5,5.4,3.2,8.2,4.6
	c1.8,0.9,2.5,0.4,2.6-1.6c0-1,0-2,0-3.1c2.6,0,5.2,0,7.8,0c-0.6,2.1-1.7,4-2.8,5.9c-1.6,2.8-1.6,3.4,0.8,5.7
	c7.1,6.5,12.9,14.1,18.2,22c9.2,13.8,10.5,28.3,4.7,43.6c-3.8,9.8-5.8,20-6.5,30.5c-0.4,7.1-2.4,13.9-5.8,20.2
	c-4.5,8.4-11.2,14.5-19.5,19.1c-2,1.1-4.2,2.2-4.8,4.6c-1,4.1-2.4,8-3.3,12.1c-0.2,0.9-0.1,1.9,0,2.9c1,6,2.6,11.8,4.8,17.4
	c5.3,13.4,14.2,23.9,25.6,32.4c11.2,8.4,23.6,13.7,37.5,15.2c11.4,1.2,22.6-0.4,33.6-3.5c4.6-1.3,9-3.2,13.6-4.7
	c-0.1,52.6-0.1,105.2,0,157.9c0,1.5-0.4,1.9-1.9,1.9c-151.5,0-303,0-454.5,0c-7.6-4-15.3-7.7-22.7-12.1c-5.2-3.1-10.5-6.2-15.5-9.6
	c0.6-0.7,1.5-0.8,2.1-1c5.3-1.7,10.6-3.3,15.9-5c5.4-1.8,10.1-4.6,13.7-9.1c5-6.2,5.7-13.4,4.4-20.9c-2-11.9-10.2-18.2-19.6-19
	c-12.2-0.9-24.5-0.8-36.7,0.5c-15.8,1.7-30.1-2.4-42.5-12.4c-7.8-6.2-14-14-20.6-21.4c-2.6-2.8-5-5.8-7.5-8.8c0.6-0.3,1-0.1,1.4,0
	c11.2,2.7,22.4,4.1,33.9,2.8c16.1-1.8,29.5-8.9,41.1-19.9c0.9-0.8,0.8-1.2,0-2.1c-6.8-7.5-14.4-14.2-22.4-20.4
	c-22.7-17.5-48.2-29.4-75.4-37.8c-18.3-5.6-37-9.5-55.9-11.9c-11.4-1.4-22.9-2.2-34.4-2.3c-2.2,0-4.3,0.3-6.6,0
	c0.7-1.6,1.7-2.9,2.6-4.1c15-18.9,32.5-35.1,51.8-49.5c27-20,56.1-36.3,86.5-50.4c34.5-16,70.3-28.5,106.8-38.8
	c3.2-0.9,6.5-1.6,9.7-2.9c-0.3-0.4-0.5-0.8-0.8-1.1c-8.7-9.9-19.6-16-32.6-18.2c-10.9-1.8-21.9-2.2-32.9-2.5c-2.5-0.1-5-0.1-7.4-0.2
	c-0.5,0-1.1,0.1-1.3-0.4c-0.2-0.5,0.3-0.9,0.6-1.2C184.1,2.2,185.1,1,186.2-0.1z M247.2,113.8c0.4-1.2,1.2-1.7,2-2.4
	c2.4-2.1,5.5-2.8,8.5-3.3c1.5-0.3,1.5-0.8,1-2c-1.1-2.4-2.1-4.9-3.1-7.4c-4.1-9.8-8.1-19.5-12.3-29.2c-2.2-5-6-7.1-11.2-6.5
	c-3.7,0.5-6.9,4-7.7,8.6c-0.6,3.5,0.4,6.7,1.7,9.8c4.1,9.4,8.1,18.8,12.4,28.1c1.8,3.8,1.7,7-1.1,10.3c-4,4.7-4.9,9.6-0.7,15.4
	c1.5,2.1,2.4,4.4,2.1,7c-0.3,3.3,0.9,5.5,3.6,7.3c3,2,5.3,4.6,6.1,8.2c0.3,1.2,1,2.1,2.1,2.6c3.8,2.1,7.5,1.8,11.2-0.2
	c1.7-0.9,2.9-0.9,3.8,1.1c5.6,11.3,11.7,22.3,17.5,33.4c2.9,5.5,2.8,11.3-0.5,16.8c-1,1.7-2.1,3.2-3,4.9c-3.8,6.6-5,13.6-3.7,21.1
	c1.1,6.5,4,12.3,6.6,18.1c8.2,18.2,18.3,35.4,28.2,52.7c0.1,0.2,0.3,0.5,0.4,0.7c0.3,0.5,0.8,0.8,1.4,0.6c0.7-0.3,0.9-0.8,0.7-1.5
	c-0.1-0.5-0.3-1.1-0.5-1.6c-2.7-9-6.7-17.6-10.2-26.3c-4.7-11.9-9.6-23.7-14.5-35.5c-1.3-3.1-0.1-5.1,3.3-5.1c2,0,2.7,1.4,3.4,2.9
	c8.7,19.1,17.5,38.1,26.2,57.2c0.6,1.3,1.1,2.7,1.7,4c0.4,0.8,1.1,1.2,2.1,0.8c0.9-0.4,1.1-1.1,0.8-2.1c-0.5-1.4-1-2.9-1.4-4.3
	c-2.8-10.1-6.1-20.1-9.7-30c-3.7-10.1-7.7-20-11.8-29.9c-0.9-2.2-0.6-3.1,1.6-4.1c2.9-1.4,4.7-0.7,6,2.5
	c4.4,10.7,8.7,21.4,13.1,32.1c3.9,9.6,7.7,19.2,11.6,28.9c0.4,1,0.9,2,2.2,1.5c1.1-0.4,0.8-1.3,0.6-2.1c-1.4-5.6-2.8-11.2-4.3-16.8
	c-4.3-16.3-9.4-32.3-15.3-48.1c-1.2-3.1,0-4.8,3.2-4.9c1.9-0.1,2.5,1.3,3.2,2.7c6.2,14.1,11.6,28.5,16.5,43.1
	c2.2,6.6,4.5,13.1,6.7,19.7c0.2,0.7,0.5,1.5,1.5,1.3c1-0.2,1.3-1,1.2-1.9c0-0.3-0.1-0.7-0.1-1c-1-7.4-2.4-14.8-3.9-22.1
	c-3.1-15-6.9-29.8-12.8-44.1c-5.2-12.4-13.8-20.8-27.4-23.4c-6.4-1.2-10.4-5.3-12.5-11.3c-4.1-11.6-8.3-23.1-12.5-34.7
	c-0.6-1.6-1.3-3.2-2.4-4.5c-0.6-0.8-1.1-0.8-1.8,0.1c-1.3,1.7-2.6,3.4-4.2,4.9c-1.9,1.8-4.1,2.6-7.1,2.1c1.7-1.3,3.1-2.5,4.6-3.6
	c1.9-1.4,2.6-3.4,2.1-5.6c-1.4-5.4-2-10.7-0.7-16.3c0.8-3.5-1.6-5.4-5.2-4.7c-2.7,0.5-5.3,1.5-7.8,2.6c-0.4,0.2-0.8,0.8-1.2,0.2
	c-0.4-0.5,0.3-0.8,0.6-1.1c1.3-1.4,3-2.2,4.5-3.3c2.8-2.1,4-5.9,2.9-9.2c-1.1-3.3-4.1-5.4-7.7-5.4c-2.1,0-4.1,0.5-5.9,1.5
	C250.3,113.7,248.9,114.2,247.2,113.8z M542.3,254.8c11.8-0.2,23.3,1.5,34.7,4.3c3.2,0.8,3.8,1.5,3.7,4.8c-0.3,4.6-1,9.2-0.9,13.8
	c0.1,3.6-1,4.9-4.7,5.1c-8.1,0.6-16.2,1-24.3,1.5c-0.4,0-0.8,0-1.2,0c-1.6,0.2-2.9,0.9-3.4,2.6c-0.5,1.6,0.2,2.8,1.4,3.8
	c4.7,3.9,10,5.1,15.8,3.2c4.2-1.4,8.4-2.7,12.8-3.3c1-0.1,2.2-0.7,2.9,0.8c0.9,2,0.1,4-2,4.8c-2.8,1-5.4,0.4-8-0.5
	c-3.9-1.3-5.8-0.6-7.7,3c-3.2,6.3-6.3,12.7-9.5,19c-0.8,1.7-0.6,3.3,0.4,4.9c2.8,4.3,8.2,6.7,13.2,5.7c3.4-0.6,6.7-1.4,10.1-2.1
	c1.2-0.2,2.5-0.2,2.9,1.2c0.5,1.4,0.3,2.8-1,3.7c-0.4,0.3-1,0.5-1.5,0.6c-2,0.4-4.1,0.8-6.1,1c-2.1,0.2-4,0.8-5.5,2.5
	c-1.8,2-4.1,3.4-6.6,4.6c-2.8,1.3-5.7,1.9-8.7,2.5c-2.2,0.5-2.9,1.7-2.5,3.7c1.3,5.7,8.8,10.8,14.5,9.7c12.2-2.3,24.5-4.5,36.7-6.8
	c3.3-0.6,6.3-0.7,8.2,2.8c0.6,1.1,1.9,1,3,0.9c0.9-0.1,1.1-0.9,1.2-1.7c0.5-3.9,1.9-7.4,3.7-10.8c1.5-2.8,2.2-5.8,1.3-9
	c-0.7-2.6-2-3.7-4.8-3.9c-2.2-0.1-3.7,1-4.5,3.4c-0.9,2.7-1.9,5.3-2,8.2c-0.1,1.4-0.5,2.8-2.2,3c-2.8,0.4-5.6,0.9-8.4,1.2
	c-2.6,0.2-4-1.1-4.4-3.8c-0.3-1.9,0.5-3,3-3.7c2.9-0.8,5.8-1.3,8.6-2.1c1.4-0.4,3.5-0.4,3.4-2.6c-0.1-2.1-2-2.6-3.7-3
	c-0.5-0.1-1-0.1-1.4-0.1c-2.7-0.1-5.2,0.4-7.7,1.2c-1.5,0.5-2.2-0.1-2.4-1.6c-0.3-2.4,0.9-4.1,3.4-4.5c6.4-1.1,12.7-2.5,19.2-2.6
	c3.1-0.1,3.8-1.3,2.4-4.1c-1.4-2.8-2.5-5.8-3.5-8.8c-1.4-4.2-2.6-8.4-4.6-12.4c-1.9-3.7-3.8-4.4-7.8-3.2c-1.6,0.5-3.2,1.1-4.9,1.6
	c-1.6,0.4-3.3-0.4-3.5-1.8c-0.2-1.6,0.4-2.8,2.1-3.3c0.4-0.1,0.8-0.2,1.2-0.3c8.5-1.9,17-3.8,25.6-5.6c1.1-0.2,2.1-0.6,2.3-1.9
	c0.2-1.4-0.5-2.1-1.7-2.8c-2.6-1.4-5.4-1.5-8.2-0.9c-5.8,1.2-11.6,2.4-17.4,3.6c-3.2,0.7-4.1,0-4.1-3.4c0-4.1,0.1-8.1,0.3-12.2
	c0.1-2.2,1-2.9,3.2-2.4c10.6,2,21.2,4.3,32,4.2c1.8,0,2.3,1,1.9,2.6c-0.4,1.4-0.9,2.8-1.3,4.1c-2.2,6.9-1.8,8.3,4,12.6
	c2.4,1.8,2.4,2.2,0.3,4.5c-3,3.2-5.9,6.4-8.8,9.6c-1,1.1-1.7,2.4-1,3.9c1.9,4.2,9.7,7.6,13.8,4.6c3.3-2.4,6.8-4.3,10.3-6.5
	c1.8-1.1,3.5-2.2,5.2-3.3c0.9-0.6,1.8-1.4,1.3-2.7c-0.4-1.2-1.5-1.8-2.7-1.9c-0.5,0-1,0.1-1.4,0.2c-3.1,0.7-6,2-8.7,3.7
	c-0.8,0.5-1.7,1.1-2.6,0.4c-0.9-0.7-0.3-1.6,0-2.5c0.6-1.8,1.1-3.5,1.8-5.3c0.9-2.4,0.7-4.6-0.8-6.8c-1.9-2.8-2.4-6-2.2-9.3
	c0.1-1.6,0.4-3.1,0.6-4.7c0.5-3.2,1.3-4,4.5-4.8c3.3-0.8,6.7-1.5,10-2.3c1.1-0.3,2.2-0.7,2.4-1.9c0.2-1.3-0.8-1.9-1.7-2.6
	c-2.2-1.6-4.5-1.8-7-1c-2.8,0.8-5.5,1.9-8.3,2.5c-8.5,2-16.8,1-25.1-1.4c-13.8-3.9-27.2-9-40.4-14.8c-2.6-1.1-5.3-1.8-8.2-1.6
	c-6.5,0.4-12.6,2.2-18.6,4.4c-3.2,1.2-6.2,2.7-9.2,4.1c-1.1,0.5-1.7,1.5-1.5,2.7c0.2,1.3,1.3,1.2,2.2,1.3
	C536.7,254.5,539.5,254.6,542.3,254.8z M364.2,326.9c-0.2,0-0.4-0.1-0.6,0c-0.6,0.1-1.5-0.7-1.8,0.3c-0.3,0.9,0.4,1.5,1.2,1.9
	c0.2,0.1,0.5,0.3,0.7,0.4c26.1,15.8,53.7,28.6,81.6,41c2.1,0.9,3.6,0.6,5.2-0.9c2.7-2.6,5.4-5.4,8.2-7.8c10.2-8.6,19.9-17.7,29-27.6
	c10.2-11,18.6-23.4,27.5-35.3c0.2-0.3,0.5-0.5,0.6-0.9c0.2-0.8,0.1-1.4-1-1.1c-0.5,0.1-0.9,0.4-1.3,0.6
	c-16.6,6.9-33.4,13.4-50.7,18.5c-21.9,6.5-44.2,10.7-67.1,11.7C385.2,328.2,374.7,328,364.2,326.9z M523.8,48.8
	c0.2,0.8,0.7,1,1.1,1.2c5.2,2.5,9.2,6.3,12,11.5c1.7,3.2,3.2,3.4,6.5,1.7c2.7-1.5,5.2-3.3,8.2-4.4c1.2-0.5,1.4-1.4,0.7-2.5
	c-3.4-5.2-4.9-11-5.8-17c-0.1-0.5,0.1-1.1-0.4-1.3c-0.5-0.2-0.9,0.3-1.2,0.6C538.7,43.9,531.8,47.4,523.8,48.8z M635.4,341.7
	c1.9,0,3.2,0,4.5,0c0.9,0,1.8-0.1,2.3-1c0.5-1,0.2-1.9-0.4-2.7c-3.5-4.2-7.5-7.8-12.6-9.9c-1.5-0.6-2.9-0.8-4.2,0.3
	c-1.4,1.2-2,2.8-1.5,4.6c0.8,3.2,2.7,5.7,5.3,7.6c1.4,1,3,1.3,4.7,1.2C634.2,341.8,635.1,341.7,635.4,341.7z"/>
<path d="M698.3-0.1c2.7,13,4,26.1,3.6,39.4c-0.5,18.1-3.8,35.5-11.9,51.8c-4.4,8.8-9.6,17.2-16.6,24.3c-9.5,9.6-21,14.7-34.5,14.6
	c-4.1,0-8.2-0.6-12.5-2.8c2.4-0.4,4.3-0.6,6.2-0.9c12.8-2.4,23.2-9.1,32.1-18.3c12.8-13.2,19.5-29.2,22.1-47.2
	c2.9-20.3,1-40-5.5-59.4c-0.1-0.5-0.2-0.9-0.3-1.4C686.8-0.1,692.6-0.1,698.3-0.1z"/>
<path d="M703.7,205.1c-2.9,0.9-5.8,2-8.8,2.8c-21.1,5.6-41.3,3.7-60.1-8c-8.5-5.3-15-12.6-20.3-21.1c-1-1.6-2-3.3-3-4.9
	c-0.4-0.6-0.8-1.3-0.5-2.2c3.1,2,5.8,4.4,8.3,6.9c11.9,11.3,26,18.4,42.2,20.7c13.8,1.9,27.1-0.1,40-5.4c0.7-0.3,1.3-0.8,2.1-0.7
	C703.7,197.1,703.7,201.1,703.7,205.1z"/>
<path d="M703.7,136.5c-5.2,4.9-10.6,9.6-16.6,13.4c-9.7,6.1-20.1,9.8-31.7,9.2c-8.8-0.4-17-2.9-24.8-7c-0.5-0.3-1.3-0.5-1.2-1.2
	c0.2-0.9,1.1-0.4,1.6-0.3c12,2.5,23.6,0.6,35.1-3.2c15.8-5.4,27.6-15.6,36.4-29.5c0.3-0.5,0.2-1.5,1.2-1.2
	C703.7,123.3,703.7,129.9,703.7,136.5z"/>
<path d="M653.3-0.1c1.1,7.6,1.6,15.2,0.8,22.8c-0.6,6-1.4,12-3.8,17.6c-2.1,4.8-5.3,8.6-9.9,11.2c-0.7-0.9-0.1-1.6,0-2.2
	c3.3-12.5,4.9-25.2,4.1-38.2c-0.2-3.8-0.8-7.5-1.2-11.3C646.7-0.1,650-0.1,653.3-0.1z"/>
<path d="M631.4-0.1c0,3.2-2.2,8.7-4.4,11c-0.7-3.7-1.5-7.4-2.2-11C627-0.1,629.2-0.1,631.4-0.1z"/>
<path d="M450.2,307.6c-2.7,3.5-6,6-10.4,6.6c-4.6,0.6-9.4-2.9-10.6-7.7c1.3,0.7,2.4,1.4,3.6,1.9c5.1,2.2,10.2,1.2,15.2-0.4
	c0.6-0.2,1.3-0.4,2-0.6C450,307.4,450.1,307.5,450.2,307.6z"/>
<path d="M450,307.4c0.1-0.2,0.3-0.3,0.5-0.1c-0.1,0.1-0.2,0.2-0.3,0.2C450.1,307.5,450,307.4,450,307.4z"/>
<path d="M470.1,154.5c0-0.2-0.1-0.3-0.1-0.5c0.1,0.1,0.3,0.1,0.4,0.2C470.3,154.3,470.2,154.4,470.1,154.5z"/>
<path d="M506.7,127c0,0.1,0,0.1,0,0.2c0,0-0.1,0-0.1,0C506.6,127.1,506.6,127.1,506.7,127C506.7,127.1,506.7,127,506.7,127z"/>
<path d="M453.8,30.4c-0.3,2.3-1.6,4.1-3.1,5.7c-6.4,7.1-14.5,11.6-23.4,14.9c-1.5,0.5-3,0.1-4.4-0.5c-7.7-3.5-12.2-9.4-14-17.7
	c3.6,4.7,8.4,7.5,13.7,9.7c2.1,0.8,4.1,0.9,6.2,0.4c8.7-2.1,16.5-6,23.4-11.7C452.8,30.9,453.1,30.3,453.8,30.4L453.8,30.4z"/>
<path d="M453.8,30.4c0-0.1,0.1-0.2,0.1-0.3C454.2,30.4,454,30.4,453.8,30.4C453.8,30.4,453.8,30.4,453.8,30.4z"/>
<path d="M576.3,302.7c1.2,0.1,2.6,0.1,2.8,1.9c0.2,1.6-0.9,2.2-2.2,2.5c-1.2,0.3-2.4,0.5-3.6,0.7c-1.2,0.2-2.2,0.8-2.5,2.1
	c-0.3,1.3,0,2.5,1,3.6c1.4,1.4,3.2,1.5,4.9,1.7c1,0.1,2.2,0.1,2.3,1.5c0.2,1.5-0.9,1.9-2,2.1c-2.1,0.4-4,1.5-6.2,1.5
	c-2.8,0.1-4.1-1.3-3.3-4c1-3.5,1.9-7.2,3.4-10.6C571.8,303.8,573.7,302.7,576.3,302.7z"/>
<path d="M567.1,347.5c-3.4,0.1-3.5,0-2.4-2.6c1.3-3.3,2.4-3.9,6-3.6c1.7,0.2,3.4,0.2,5.1-0.2c2.2-0.6,4.4,1.6,4.1,3.9
	c-0.1,0.6-0.4,0.9-0.9,0.9C574.7,346.1,570.7,347.5,567.1,347.5z"/>
<path d="M597,309.6c2.9-0.2,3,1.6,3.4,3.1c0.4,1.6-0.7,2.1-2.1,2.4c-2.1,0.4-4.1,0.9-6.2,1.4c-0.9,0.2-1.9,0.7-2.6-0.5
	c-0.6-1.1-0.5-2.2,0.2-3.3c1-1.2,2.3-1.9,3.8-2.3C594.9,310.1,596.2,309.8,597,309.6z"/>
<path d="M594.5,298.8c2.2,0,3.9,2.2,3.3,4.4c-0.2,0.7-0.6,1.3-1.2,1.3c-2,0-3.9,0.7-5.9,0.4c-1.8-0.3-2-1.4-1.7-2.9
	C589.5,300,591.7,298.8,594.5,298.8z"/>
</svg>
