<?xml version="1.0" encoding="utf-8"?>
<!-- Generator: Adobe Illustrator 28.4.1, SVG Export Plug-In . SVG Version: 6.00 Build 0)  -->
<svg version="1.1" id="Layer_1" xmlns="http://www.w3.org/2000/svg" xmlns:xlink="http://www.w3.org/1999/xlink" x="0px" y="0px"
	 viewBox="0 0 510.1 628.2" style="enable-background:new 0 0 510.1 628.2;" xml:space="preserve">
<style type="text/css">
	.st0{fill:white;}
	.st1{fill:white;}
	.st2{fill:white;}
</style>
<g>
	<path class="st0" d="M380.9,315.6c-0.5,1.5-2.1,1.8-3.1,2.8c-1.4,1.5-2.4,2.8-1.5,5.1c1.2,3,1.2,6.1,0.2,9.3
		c-0.5,1.8,0,2.6,1.7,3.1c1.3,0.3,2.6,0.2,3.8-0.4c1.2-0.6,2.5-1,4.1-1.6c-0.6,1.9-2.1,2.3-3.1,3.2c-2.3,1.8-2.9,3.4-2.1,6.2
		c0.4,1.5,0.4,1.5-0.7,3.2c-1.8-1.8-2.9-3.8-2.1-6.4c0.3-1,0.2-1.6-0.8-2.1c-2.2-1.1-4.1-2.6-6.9-2c-1.7,0.3-3.3-0.4-5.1-2
		c2,0,3.4,0.1,4.9,0c2.6-0.1,3.8-1.1,4.1-3.7c0.3-2.6,0.6-5.3-2.1-7c-2.6-1.7-6.9-1.4-9.3,0.4c-1,0.7-1.3,1.7-1.2,2.8
		c0.4,3.1,1,6.2,1.9,9.3c0.4,1.4,1.4,2.4,2.4,3.4c0.4,0.4,0.8,0.7,1.2,1.1c4.2,3.9,3.9,6.7-1.1,9.7c-2.5,1.5-5.3,2.5-8.2,3.2
		c-10,2.8-16.1,9.5-19.1,19.2c-0.2,0.8-0.3,1.7-1.1,2.3c-1-0.9-0.8-2.2-0.9-3.3c-0.5-7.8,2.2-14.1,8.6-18.5c1.8-1.2,1.9-2.2,1.3-4
		c-3.4-10.5-10.8-16.5-21.4-18.8c-0.9-0.2-1.9-0.4-2.9-0.5c-0.8-0.1-1.7,0.2-2.7-0.6c2.5-1.6,5.4-0.4,8-1.1c0-5.9-2-11.1-6-15.4
		c-8.4-9-18.7-12.3-30.8-9c-3.2,0.9-3.1,1-2.1,4c0.5,1.3,1.4,2.4,1.4,4.1c-2.6-0.4-5-0.7-7.7-1c1.3-5.2,0.5-10.3-0.4-15.5
		c2-0.1,3.2,1.4,5.4,2c-1.3-2.3-2.4-4.2-3.6-6c-5.1-8.4-10.3-16.7-13.6-25.9c-1.9-5.3-3.1-10.7-1.8-16.3c0.9-3.9,2.7-7.2,5.6-10
		c-0.4,3.1-1.5,6-1.9,9.1c-0.3,2.5-0.3,5,0.2,7.4c0.9,4.6,5.3,9.7,11.8,9c5.5-0.6,9.5-5,9.8-10.8c0.3-4.6-1.4-8.6-4.1-12.1
		c-2.8-3.6-5.8-7.1-8.7-10.6c-1.6-2-1.6-2.1,0.9-2.9c5.4-1.7,10.9-1.7,16.4-0.3c-0.7-5.8-5.5-9.6-15.1-12.2c1.3-2.1,3-4,3.4-6.7
		c-3.3-0.5-6.4,0.3-9.4,0.7c-10,1.5-19.8,3.8-29.4,6.9c-1.7,0.6-3.1,1.4-4.3,2.8c-10,11.2-17.1,24-22.8,37.8
		c-2.6,6.3-5.1,12.7-7.6,19.1c-0.1,0.3-0.1,0.6-0.2,1c1.7-0.5,2.8-2,4.8-2.2c-1.6,5.2-3.1,10.2-4.7,15.5c7.1,1.4,13.5,3.9,19.9,7.5
		c-0.6-3.4-0.8-6.4-0.5-9.2c0.8-0.2,1,0.1,1,0.4c1.2,7.9,5.1,14.7,8.6,21.7c1.4,2.9,2.8,5.8,3.9,9.4c-1.8-1-2.4-2.5-3.1-3.6
		c-5.9-9.3-14.3-13.9-25.3-13.8c-10.5,0.1-20.2,2.6-28.4,9.5c-0.2,0.2-0.6,0.3-0.9,0.4c-0.1,0-0.2-0.1-0.5-0.2
		c2.6-3.6,5.9-6.2,9.7-8.4c6-3.4,12.4-5.1,19.3-5.3c1,0,2,0.2,3.1-0.2c-1.4-0.3-2.6-0.6-3.8-0.9c-6.9-2.2-14-3.2-21.2-1.5
		c-12.6,3-20,11.1-22.6,23.7c-1.6,7.7-0.2,15.1,1.8,22.5c0.4,1.4,0.8,2.7,1.2,4.1c0,0.1-0.1,0.2-0.3,0.6c-4.6-5.4-7.3-11.5-8.8-18.3
		c-3,1.1-5.1,3.3-7.1,5.6c-5.4,6.2-7.5,13.7-7.4,21.7c0,3.9-0.7,7.4-2.2,11c-2.9,7-4.8,14.2-4.6,21.8c0,1.5,0.3,2.9,0.5,4.4
		c-1,0.1-1.2-0.7-1.5-1.2c-4-6.7-5.8-13.8-3.3-21.5c0.9-2.8,2-5.5,3.4-8.1c0.9-1.6,1.2-3.2,1.1-5c-0.6-8.5,1-16.4,5.7-23.6
		c3.2-4.9,7.2-9,12.8-11.1c1-0.4,1.5-0.9,1.6-2c0.3-2.1,0.8-4.3,1.8-6.2c0.5-0.9,0.5-1.8,0.4-2.8c-2.7-20.6-18-36.7-36.5-41.7
		c-9.7-2.6-19.3-2.7-28.9,0.1c-0.9,0.3-1.9,0.5-2.8,0.7c-0.2,0-0.4-0.1-0.9-0.2c0.3-43.4,12.7-83.5,34.3-121.5
		c1.1,2.2,1.4,4.2,1.9,6.1c1,3.8,1.9,7.6,3.5,11.2c2.3,5,5.8,8.6,11.6,9.4c9.1,1.3,16.2-4.4,17.7-12.5c0.5-2.9,0.5-5.8,0.6-8.8
		c0.1-6.6,0-13.3-0.5-19.9c-0.9-13,2.8-24.5,11.7-34.2c5-5.5,10.3-10.6,16.2-15.8c-0.9,4.7-1.7,8.9-2.2,13.2
		c-1.5,15,2,28.7,11.4,40.7c0.5,0.6,1,1.1,1.6,1.8c3.4-3,6.2-6.5,9-9.9c12.3-15.5,20.7-33.1,26.7-51.9c5.5-17.2,9.1-34.9,11-52.9
		c0.7-7,1.1-14.1,1.3-21.2c0-1.3,0-2.5,0-4.3c2.1,1.2,3.3,2.5,4.6,3.8c14.8,14.1,26.6,30.4,36.6,48.1c16.2,28.5,28.4,58.8,37.9,90.1
		c4.2,13.7,7.7,27.6,11,41.5c0.2,0.8,0.5,1.7,0.8,2.8c4-3.7,6.8-7.8,9-12.5c3.4-7.3,4.2-15,4.6-22.9c0.4-6.1,0.6-12.1,0.9-18.2
		c1.1-0.4,1.4,0.5,1.9,1c6.2,6.7,10.9,14.4,14.9,22.5c6.6,13.4,10.7,27.7,13.8,42.3c5.2,24.8,6.5,50,6,75.3c-0.2,10-0.6,20-2.1,29.9
		c-0.6,4.1-1.3,8.1-2.4,12.5c-3.3-3.5-6.7-3.1-10.2-1.1C381.8,315.5,381.3,315.5,380.9,315.6c0-1.8-1.3-3.2-2.1-4.7
		c-3.5-6.5-7-13-10.2-19.7c-1.5-3.1-1.5-6,0.1-9c1.2-2.2,2.5-4.4,3.5-6.6c1.6-3.4,2.4-7,1.5-10.8c-0.7-3.3-1.6-6.5-3-9.6
		c-5.7-13-12.8-25.2-19.8-37.5c-0.3-0.5-0.5-1.3-1.5-1.1c-0.5,1.2,0.1,2.3,0.5,3.4c1,2.8,2,5.5,3.1,8.2c4.1,10.2,8.3,20.3,12.4,30.5
		c1.1,2.8,0.9,3.2-1.3,3.8c-1.2,0.4-2.1,0.3-2.6-1.1c-0.5-1.2-1.1-2.4-1.7-3.5c-5.2-11.5-10.5-22.9-15.7-34.4
		c-0.6-1.3-1.1-2.8-2.2-3.8c-0.9,0.4-1,0.9-0.8,1.7c0.5,1.7,1,3.3,1.5,5c3.6,12.4,8.3,24.5,13.3,36.4c1.2,2.8,1.1,2.8-1.8,3.9
		c-1.3,0.5-2,0.2-2.6-1c-0.3-0.6-0.5-1.2-0.8-1.8c-2.4-5.8-4.8-11.7-7.2-17.5c-2.8-6.8-5.5-13.7-8.3-20.5c-0.4-0.9-0.4-2.2-1.9-2.3
		c-0.6,0.9-0.1,1.7,0.1,2.5c1.9,8,3.9,16,6.5,23.9c1.9,5.8,3.6,11.6,5.8,17.3c0.3,0.9,1,1.8,0.2,2.7c-1.5,1.6-3.4,1.3-4.3-0.7
		c-2.7-5.8-5-11.8-7.2-17.8c-2.7-7.5-5.2-15-7.8-22.5c-0.3-0.8-0.3-1.7-1.4-2.2c-0.9,1.1-0.6,2.4-0.4,3.7c0.5,3,1.1,6,1.7,9
		c2.1,10.9,4.7,21.6,8.9,32c3.4,8.3,8.6,14.2,17.8,16c4.8,1,7.7,3.9,9.3,8.6c2.5,7.4,5.3,14.7,8,22c0.5,1.3,0.8,2.6,2.3,3.4
		C374.4,317.7,377.2,315.9,380.9,315.6z M137.9,223.5c0,2.3-1.1,4.1-1.5,6.1c-0.3,1.2-0.6,2.4,0.2,3.4c2.3,2.8,1.9,6,1.5,9.3
		c-0.3,1.9-1,3.2-3.1,3.5c-2,0.3-4,0.8-6,1.4c-0.8,0.2-1.8,0.4-2,1.4c-0.2,1.2,0.9,1.6,1.6,2.2c1.7,1.3,3.4,0.5,5,0
		c4.8-1.7,9.7-2.3,14.8-1.7c4.1,0.4,8.1,1.7,11.9,3.1c7.5,2.7,15.1,5.6,22.6,8.3c1.3,0.5,2.6,1.1,4.1,0.8c5.7-1.1,11.2-2.5,16.5-5
		c1.1-0.5,2.7-0.9,2.3-2.6c-0.4-1.6-2-1-3-1.1c-5.3-0.4-10.7,0.1-15.9-0.9c-3.7-0.7-7.5-1.3-11.2-2.1c-1.1-0.2-2.2-0.5-2-2.1
		c0.6-3.4,0.3-6.9,0.5-10.4c0.1-2.3,0.3-2.6,2.7-2.9c2.8-0.4,5.6-0.6,8.4-0.7c2.6-0.2,5.2-0.1,7.8-0.2c1.4-0.1,3-0.2,3.3-2
		c0.4-1.7-0.8-2.7-2.1-3.4c-3-1.7-6.2-2.4-9.7-1.1c-2.5,1-5.2,1.7-7.9,2c-0.8,0.1-1.9,0.5-2.1-0.8c-0.2-1.1-0.1-2.2,1.3-2.6
		c1.5-0.5,2.9-0.9,4.4,0.1c0.1,0.1,0.2,0.1,0.3,0.2c2.8,1.3,4,1,5.7-1.7c2.6-4.1,4.1-8.9,6.5-13.1c0.3-0.6,0.3-1.2,0-1.9
		c-1.3-3.2-5.7-5.5-9.1-4.8c-2.2,0.5-4.5,1-6.7,1.5c-0.9,0.2-1.8,0.3-2.1-0.8c-0.2-1,0-2,1-2.5c0.5-0.2,1-0.3,1.6-0.4
		c3-0.4,6.1-0.6,8.1-3.4c0.3-0.5,1.1-0.7,1.7-1c2.2-1,4.3-2,6.7-2.3c2.1-0.3,2.5-1.3,1.6-3.2c-0.8-1.7-1.9-3.1-3.4-4.3
		c-1.6-1.4-3.4-2-5.7-1.5c-7.8,1.6-15.6,2.8-23.4,4.4c-2.6,0.5-4.8,1-6.7-1.6c-0.9-1.2-2.5-0.8-2.7,0.6c-0.3,3.1-1.8,5.8-3,8.5
		c-0.8,1.8-0.8,3.6,0,5.4c1.2,2.4,4,2.6,5.4,0.4c0.8-1.2,1.1-2.6,1.4-4c1.1-4.6,1.1-4.6,5.9-4.9c0.6,0,1.3-0.1,1.9-0.1
		c1.1-0.1,1.8,0.5,2.2,1.6c0.5,1.5,0.1,2.6-1.4,3c-2.3,0.7-4.6,1.2-6.9,1.8c-0.7,0.2-1.3,0.5-1.3,1.2c0,0.7,0.4,1.2,0.9,1.6
		c0.9,0.7,2,0.6,3.1,0.7c2,0.2,3.7-1,5.7-0.8c0.3,3.4,0.3,3.4-2.6,4c-3.7,0.7-7.4,1.6-11.3,1.4c-0.3,0-0.7,0-1,0
		c-1.7,0.3-2.2,1.2-1.4,2.7c1.3,2.2,1.9,4.6,2.7,7c0.8,2.2,1.5,4.3,2.4,6.4c1.6,3.6,3.4,4.3,7,2.6c0.8-0.4,1.6-0.6,2.5-0.7
		c1.2-0.1,1.5,0.6,1.5,1.6c0,1.1-0.9,1.4-1.7,1.6c-2.2,0.5-4.4,1-6.7,1.5c-3.4,0.7-6.8,1.4-10.2,2.2c-0.8,0.2-1.8,0.3-1.9,1.5
		c-0.1,1.3,0.9,1.7,1.7,2.1c1.4,0.7,2.8,0.9,4.4,0.5c4.1-1,8.3-1.7,12.4-2.6c1-0.2,1.8-0.2,1.9,1c0.2,3.6,0.4,7.3-0.3,11.1
		c-8.1-1.9-16-2.9-24-3.4c-0.2-1.2,0.2-2,0.5-2.8c2-6,1.8-6.7-3.3-10.3c-0.1-0.1-0.2-0.3-0.4-0.7c2.2-2.4,4.4-4.9,6.7-7.3
		c1-1,1.5-1.8,0.8-3.1c-1.6-3.3-6.7-4.6-9.8-2.6c-2.6,1.7-5.3,3.4-7.9,5.1c-0.7,0.5-1.5,0.9-2.1,1.6c-0.8,1-0.4,2.2,0.9,2.5
		c1.1,0.2,2.1-0.2,3.2-0.5C134,225.7,135.6,224.2,137.9,223.5z M317.4,204.5c-0.7-0.5-1-0.8-1.3-1c-17.2-10.4-35.4-18.8-53.8-27
		c-1.1-0.5-1.7-0.4-2.6,0.4c-1.7,1.7-3.4,3.3-5.3,4.8c-14.2,11.6-26.2,25.1-36.5,40.2c-0.5,0.7-1.3,1.3-1.4,2.3
		c1,0.2,1.5-0.2,2.2-0.4c7.4-2.8,14.8-5.6,22.2-8.4c13.4-4.9,27.2-8.3,41.3-10c10.5-1.3,21.1-1.1,31.6-0.8
		C314.8,204.8,315.9,205.1,317.4,204.5z M137.7,195.5c-1.3,0-2.2-0.1-3.2,0c-1.8,0.2-2.2,0.8-1.3,2.2c2.1,3.2,5.1,5.6,8.7,6.9
		c2.1,0.8,3.2-0.2,3.3-2.5c0.1-1.6-0.4-2.8-1.4-4.1C142.1,195.8,140.1,194.9,137.7,195.5z"/>
	<path class="st0" d="M202,409.6c-4.4-4.2-7.4-9.2-9.9-14.3c-4.5-9.3-11.6-15.6-21.3-19c-0.5-0.2-1-0.5-1.5-0.7
		c-0.1,0-0.1-0.2-0.2-0.5c1.6-0.4,3.2,0.2,4.8,0.1c1.5,0,3,0.1,4.6,0.2c18.1,1.1,31.4-9.7,33.4-27.1c-8.8,1.7-17.1,0.1-24.7-4.7
		c13.3,3.4,25.5,1.5,36.2-7.9c-0.8,2.3-2.2,4-3.7,5.6c-0.7,0.7-0.9,1.2-0.3,2.2c5.9,10.5,14.4,17.5,26.3,20.1
		c6.2,1.4,12.3,1.3,18.3-0.9c8.1-2.9,12.6-9.2,12.7-17.8c0.1-8.4-2.8-15.7-7.7-22.4c-2.2-3-4.8-5.6-7.3-8.3c-4-4.1-7.4-8.6-8.8-14.3
		c-0.6-2.3-1.2-4.6-0.8-6.9c0.5-0.2,0.9,0,0.9,0.3c1.5,6,5.2,10.7,9.2,15.1c2.1,2.3,4.4,4.5,6.6,6.8c5.1,5.6,9.2,11.9,11.1,19.3
		c1.8,6.8,2.1,13.5-0.1,20.2c-0.4,1.1-0.5,1.9,0.5,2.8c8.3,6.5,20.2,7.7,28.9,0.8c5.7-4.6,7.6-10.7,6.2-17.8
		c-1.3-7-4.6-13.1-9.1-18.5c-1-1.2-2-2.4-2.9-3.8c3.3,1.3,5.8,3.7,8.1,6.1c3.4,3.5,6.3,7.5,8,12.2c2.2,6.1,2.8,12.3,0.2,18.4
		c-1,2.3-0.7,4.7-1.1,7c-1.1,5.9-2.7,11.6-5.3,17c-0.8,1.7-0.6,2.8,0.7,4c2.1,2,4.4,3.6,7.1,4.4c0.2,0.1,0.4,0.1,0.6,0.1
		c7.5,1.4,14.4,4.1,20,9.8c0,0.8-1,1.1-1.6,1.6c-14,11.3-29.7,19.4-47,24.6c-2.5,0.8-2.5,0.7-3-1.9c-0.5-2.5-0.8-4.9-1.5-7.3
		c-0.7-2.4-0.4-4.4,0.6-6.6c2.3-4.9,5-9.7,8.2-14.1c4.5-6.3,8.6-12.8,10.8-20.3c0.9-2.8,1.6-5.6,1.6-8.8c-3.8,1.4-7.3,3-11.2,3.3
		c-3.9,0.4-7.7,0-12.1-0.7c3.8,3.7,6.4,7.3,7.2,12.2c-1,0-1-0.5-1.2-0.8c-3.1-5.6-8.1-8.9-13.7-11.6c-1.2-0.6-2.2-0.5-3.3,0
		c-9.1,3.8-16.9,9.2-23.3,16.8c-0.8,1-1,2.4-2.8,3.4c2.7-7.7,7.6-13,13.5-17.7c-17.9,3-33.2-1.1-44.9-15.8c-0.4,1.1-0.7,1.8-0.9,2.6
		c-1.9,5.9-4.8,11.2-9.4,15.4c-0.9,0.9-1,1.4-0.3,2.4c2.9,4.2,6.5,7.6,10.9,10.1c2.6,1.5,5.3,3,7.6,5c6.5,5.4,8.2,12.5,7.6,20.5
		c-0.1,0.9-0.6,1.6-1.2,2.3c-4.6,5.2-8.7,10.8-11.5,18.1c-0.4-1.8-0.7-3-1-4.1c-0.3-1.2-0.5-2.3-0.8-3.5c-0.2-1,0.2-1.6,1-2.2
		c1.7-1.4,3.3-2.9,4.9-4.3c1.8-1.5,2.2-3.2,1.2-5.2c-1.7-3.5-3.3-7.1-5-10.6c-0.3-0.6-0.6-1.2-1.3-1.4c-3.2-0.7-6.4-1.5-9.4,0.6
		c-1.4,1-2.8,2-4.2,3C203.7,404,201.6,406,202,409.6z M200.6,377.2c-2.7,2.3-5.9,3.2-9,4.8c3.1,3.9,3.8,8.4,4.7,13.3
		c4.1-4.2,8.9-6.4,14.4-7.8C205.9,385.5,202.9,381.9,200.6,377.2z"/>
	<path class="st0" d="M351,467.7c0-5,0-10,0-15.1c0-1.6-0.8-1.6-2-1.7c-3-0.1-3-0.2-3-3.1c0-2.1-0.9-4.8,0.4-6.1
		c1.4-1.6,4.2-0.5,6.4-0.5c4.5-0.1,9,0,13.4-0.1c1.8,0,2.6,0.6,2.4,2.4c-0.1,1.6-0.1,3.3,0,4.9c0.1,1.7-0.3,2.7-2.3,2.5
		c-0.5-0.1-0.9,0-1.4,0c-0.9,0-1.2,0.5-1.2,1.3c0,0.8,0,1.6,0,2.5c0,12.4,0,24.7,0,37.1c0,2.9,0,2.9-2.9,2.9c-3.2,0-6.4-0.2-9.5,0.1
		c-2.8,0.2-4.5-0.8-6-3.2c-4.7-7.5-9.6-14.8-14.5-22.1c-0.6-0.9-1-2-2.5-3c0,5.8,0,11.3,0,16.8c0,1.3,0.6,1.5,1.8,1.6
		c3.9,0.2,3.9,0.3,3.9,4.3c0,5.6,0,5.6-5.5,5.6c-5.1,0-10.1-0.1-15.2,0c-1.7,0-2.7-0.4-2.5-2.3c0.1-1.3,0-2.6,0-3.9
		c0-3.1,0-3.1,3.1-3.7c0.9-0.2,1.2-0.6,1.3-1.3c0.1-0.6,0-1.2,0-1.8c0-9.3,0-18.6,0-27.9c0-2.5,0-2.6-2.6-2.9
		c-1.3-0.1-1.9-0.6-1.9-2c0-0.1,0-0.2,0-0.4c0.3-2.4-1.1-5.4,0.6-7.1c1.4-1.4,4.3-0.4,6.5-0.4c3.8-0.1,7.5,0.1,11.3-0.1
		c2.4-0.1,3.8,0.6,5.1,2.7c4.5,7.2,9.2,14.2,13.9,21.2c0.6,1,1.3,1.9,2,2.9C350.6,467.8,350.8,467.7,351,467.7z"/>
	<path class="st0" d="M213.4,473c0,3.7,0,7.4,0,11.2c4.2,0.5,4.2,0.5,4.2,4.7c0,5.8,0,5.8-5.7,5.8c-5.4,0-10.8-0.1-16.3,0
		c-1.6,0-2.4-0.4-2.3-2.2c0.1-2,0.1-4,0-6c-0.1-1.5,0.4-2.3,2-2.1c1.8,0.2,2.1-0.7,2.1-2.3c-0.1-9.7-0.1-19.3,0-29
		c0-1.8-0.6-2.4-2.2-2.1c-1.6,0.2-2-0.6-1.9-2c0.2-2.5-1.1-5.7,0.6-7.4c1.4-1.4,4.5-0.4,6.8-0.4c6.7-0.1,13.4,0,20.1,0
		c2.7,0,5.4,0.5,8,1.3c6.5,2.1,9.6,6.2,9.8,13c0.2,6.4-2.3,9.7-9.1,12.2c-0.2,0.8,0.5,0.9,1,1.1c4.4,1.9,6.6,5.4,7.1,10.1
		c0.1,1.3,0.3,2.6,0.5,3.8c0.1,0.6,0.7,1,1.3,1c0.7,0,1.1-0.4,1.3-1c0.2-0.6,0.4-1.1,0.4-1.7c0-1.3,0.5-1.8,1.9-1.9
		c3-0.1,3.2,0,3.2,3c0,0.4,0,0.7,0,1.1c-0.2,7.9-3.6,12-10.2,12.4c-8.7,0.5-14.2-3.5-15.3-11.1c-0.3-1.7-0.4-3.5-0.5-5.3
		C220.1,473.7,219.1,472.7,213.4,473z M213.2,464.1c2-0.1,3.5-0.1,5.1-0.3c3.5-0.4,5.3-2.3,5.4-5.7c0.1-4-1.6-6.4-5-6.9
		c-1.4-0.2-2.8-0.1-4.2-0.1c-0.9,0-1.2,0.4-1.2,1.3C213.2,456.1,213.2,460,213.2,464.1z"/>
	<path class="st0" d="M263.3,451.1c-2.4,0.3-3.1-0.7-2.9-2.8c0.2-2.2-0.7-5,0.4-6.5c1.2-1.6,4.2-0.5,6.4-0.6
		c6.2-0.1,12.5-0.1,18.7,0c3.4,0,3.4,0,4.4,3.1c3.7,12.2,7.5,24.5,11.2,36.7c1,3.3,1,3.4,4.4,3.5c1.5,0.1,2.1,0.6,2,2.1
		c-0.1,2-0.1,4,0,6c0.1,1.4-0.3,2.2-1.9,2.2c-8.7-0.1-17.4,0-26.1,0c-1.7,0-2.3-0.7-2.2-2.3c0.1-1.9,0.1-3.8,0-5.7
		c-0.1-1.8,0.8-2.2,2.3-2.2c1.5,0,3,0.3,4.5-0.3c-0.9-4.9-0.9-4.9-5.6-4.9c-2.7,0-5.4,0-8.1,0c-2.8,0-2.9,0-3.7,2.7
		c-0.2,0.7-0.3,1.4-0.5,2.1c1.2,0.7,2.6,0.4,3.8,0.4c1.2,0,1.8,0.5,1.7,1.7c0,0.2,0,0.5,0,0.7c-0.1,2.5,1,5.6-0.4,7.2
		c-1.5,1.7-4.7,0.6-7.1,0.6c-4.7,0.1-9.4,0-14.1,0.1c-1.7,0-2.3-0.6-2.3-2.2c0.1-1.9,0.1-3.8,0-5.7c-0.1-1.7,0.7-2.2,2.3-2.3
		c3-0.2,3-0.2,3.8-2.9C257.1,471.6,260.1,461.6,263.3,451.1z M275.8,454.9c-0.3,0-0.5,0-0.7,0c-1.5,5-2.9,10-4.4,15
		c3.3,0,6.4,0,9.7,0C278.8,464.7,277.3,459.8,275.8,454.9z"/>
	<path class="st0" d="M190.2,441.3c0,5.1,0,9.9,0,14.8c0,1.6-0.7,2-2.1,2c-3.1-0.1-6.1-0.1-9.2,0c-1.6,0.1-1.9-0.7-2-2.1
		c-0.2-4.8-0.2-4.9-4.9-4.8c-2,0-4.5-0.9-5.8,0.4c-1.3,1.3-0.4,3.8-0.5,5.7c-0.1,1.9,0,3.8,0,5.6c-0.1,1.2,0.4,1.7,1.6,1.6
		c3.3-0.1,6.6,0,9.9,0c2.5,0,2.6,0.1,2.6,2.4c0,1.8,0,3.5,0,5.3c-0.1,2.4-0.1,2.5-2.6,2.5c-3.2,0-6.4,0.1-9.5,0
		c-1.5,0-2.2,0.4-2.1,2c0.1,0.6-0.1,1.2,0,1.8c0.2,1.9-0.7,4.1,0.5,5.5c1.1,1.3,3.3,0.4,5.1,0.5c1.5,0,2.2,0.6,2.1,2.1
		c-0.2,2.6,1,5.7-0.5,7.5c-1.4,1.7-4.6,0.6-7,0.6c-6,0.1-12,0-18,0.1c-1.9,0-2.5-0.6-2.4-2.4c0.1-1.4,0-2.8,0-4.2
		c0-1.1-0.2-2.3,0.3-3.1c0.6-1,1.9-0.5,2.9-0.5c0.9-0.1,1.3-0.5,1.3-1.3c0-0.6,0-1.2,0-1.8c0-9.1,0-18.1,0-27.2c0-2.8,0-2.9-2.7-3
		c-1.3-0.1-1.9-0.5-1.8-1.8c0.2-2.6-1-5.8,0.5-7.5c1.4-1.7,4.6-0.6,7.1-0.6c11.9-0.1,23.8,0,35.7,0
		C188.9,441.1,189.4,441.2,190.2,441.3z"/>
	<path class="st0" d="M154.3,308.8c-14.6-16.2-32.1-23.7-53.8-18.2c-0.7-1-0.5-1.9-0.5-2.7c-0.5-5-0.5-5.2,4.3-5.8
		c15.9-2.3,29.9,1.5,41.4,13.1C149.5,298.9,152.4,303.5,154.3,308.8z"/>
	<path class="st0" d="M141.7,321.2c-12.3-2.4-23.6,0.2-34.3,6.7c-1.2-2.1-1.3-4.4-2-6.5c-0.4-1.3,0.5-1.7,1.4-2.1
		c9.7-4.6,19.6-5.2,29.7-1.3c1.5,0.6,3,1.3,4.5,2C141.4,320.1,142.1,320.3,141.7,321.2z"/>
	<path class="st0" d="M144.1,336.6c-11.8,0.8-20.5,6.7-28.2,14.9c-1.7-2-2.2-4.5-3.3-6.8c-0.3-0.6,0.2-1,0.6-1.4
		c8.3-7.9,20.8-10.9,30.3-7.2C143.7,336.1,143.8,336.2,144.1,336.6z"/>
	<path class="st0" d="M256.5,399.7c2.8-5,7.1-8,11.8-10.7c0.4-0.2,0.8-0.4,1.2-0.6c2.5-0.7,4.4-3.1,7.5-1.6c4.1,2,7.8,4.3,9.3,8.9
		c0.2,0.8,0.8,1.6,0.3,2.7c-2.5-3.2-5.8-5.2-9.5-6.6c-1.3-0.5-2.4-0.5-3.7-0.2c-5.4,1.4-10.4,3.6-14.8,7.2
		C258,399.3,257.6,399.9,256.5,399.7z"/>
	<path class="st0" d="M259,218.3c2.1-3,4.7-5.2,8.4-4.9c3.4,0.3,5.5,2.6,6.4,6.1C269.1,215.4,264.2,215.7,259,218.3z"/>
	<path class="st0" d="M182.2,209.9c-0.3,3.1-1.1,5.8-2,8.4c-0.7,2.2-2.6,3.1-4.6,2.5c-0.4-0.1-0.8-0.3-1-0.8
		c-0.2-0.6,0.1-1.2,0.6-1.4c0.9-0.4,1.8-0.6,2.8-0.8c1.1-0.2,1.9-0.6,2.2-1.6c0.3-1.2-0.6-2-1.4-2.7c-0.9-0.7-1.9-0.9-3-1
		c-0.6,0-1.1-0.3-1.1-0.9c0-0.3,0.5-0.8,0.8-0.9C177.6,210,179.7,209.6,182.2,209.9z"/>
	<path class="st0" d="M184.3,191.7c0.2,1.7-0.8,2.5-1.4,3.5c-0.5,0.9-1.2,1.2-2.2,0.8c-1-0.4-2.1-0.7-3.2-0.4
		c-2.1,0.7-2.9-0.5-3.5-2.4C177.4,192.5,180.7,191.7,184.3,191.7z"/>
	<path class="st0" d="M162.5,216.5c-1.1,0.1-1.5-0.5-1.8-1.5c-0.2-1,0-1.7,1.1-1.9c1.4-0.3,2.8-0.6,4.1-0.9c0.8-0.2,1.5-0.5,1.9,0.5
		c0.3,0.9,0,1.8-0.8,2.3C165.7,215.8,164.1,216.3,162.5,216.5z"/>
	<path class="st0" d="M162.2,220.5c1.5-0.6,2.7-0.7,4-0.8c0.7,0,1.6-0.1,1.8,0.9c0.2,0.9-0.2,1.7-1,2.2
		C164.6,224.4,163.5,223.9,162.2,220.5z"/>
	<path class="st1" d="M456.5,569.1c-2.2,9.8-3.1,19.4-5.8,28.7c-1.9,6.5-3.8,13.1-6.5,19.3c-0.5,1.1-0.9,2.4-2.2,2.4
		c-1.6-0.1-1.2-1.7-1.5-2.7c-2.5-8.8-5.1-17.6-8.4-26.1c-3.5-8.9-0.5-17.8,0.6-26.6c2.1-17.6,1.3-34.8-5-51.6
		c-3.7-10,3.4-24.6,13.2-28.7c2.5-1,3.9-0.7,5.7,1.8c11.6,16.4,19.3,34.9,29.5,52c0.8,1.4,1.6,2.8,2.9,4.1
		c1.2-31.2-4.5-61.6-10.4-92.5c3.1,0.8,3.8,2.9,5,4.3c6.3,7.5,12.5,15.2,18.9,22.6c2.8,3.2,4,6.8,4.6,10.8c3.9,28.9,6,57.9,6.7,87
		c0.2,6.6-0.6,13.5,6.4,19.2c-6.1-0.2-5.8,3-5.7,6.4c0.1,5.3,0,10.6,0,15.9c0,0.9,0.4,2.1-0.8,2.6c-1.1,0.4-1.8-0.6-2.5-1.3
		c-4.8-4.8-9.6-9.6-14.4-14.5c-2.2-2.3-4-4.9-6.4-7c-3.3-2.8-5.5-5.7-3.7-10.3c0.8-2.2-0.3-3.7-2.4-4.8c-4.1-2.2-8.1-4.5-12.2-6.8
		C460,572.2,457.7,571.4,456.5,569.1z"/>
	<path class="st2" d="M77.6,465.4c2,5.4,3.3,9.5,4.9,13.5c4.2,10.5,9,20.8,14.3,30.8c2.7,5,3,10.5,3.1,16c0.3,9.5,0.8,18.9,1.1,28.4
		c0.1,3,1.2,4.5,4.3,5c6.4,1,12.9,1.3,19.4,1.6c3.2,0.2,3.4-1.9,3.5-4.2c0.3-11.5,0.6-22.9,1-34.4c0.3-8.8,0.7-17.6,1.1-26.4
		c0-1-0.4-2.6,1.4-2.7c1.2,0,1.5,1.1,1.9,2.1c5,12.6,11.3,24.4,18.7,35.8c2.4,3.7,2.1,8,2,12.1c-0.1,5.5-0.4,11-0.8,16.4
		c-0.2,2.9,0.7,4.1,3.8,4.4c11.2,1.1,11.2,1.2,6,11.2c-0.6,1.2-1.2,2.5-2.2,3.3c-7.4,6.1-7.5,14.1-6.5,22.7c0.9,7.7,2,15.4,3.5,22.9
		c-1.3,1.2-2.1,0.3-2.8-0.2c-9.8-6.8-19.7-13.7-29.1-21.1c-2.8-2.2-3.4-4.4-2.4-7.8c3.6-12.4,3.3-11.9-9.1-11.8
		c-11.8,0.1-11.9,0-11,11.9c0.6,8.8,1.4,17.5,2.1,26.6c-3.3-0.2-4.7-2.6-6.5-4c-9.2-7.2-17.5-15.3-25-24.3c-2.5-3-2.8-5.6-1.9-9.5
		c3-12.6,3.5-25.5,3.9-38.5c0.8-24.3-1.2-48.5,0.5-72.7C76.9,470.4,77.2,468.6,77.6,465.4z"/>
	<path class="st2" d="M394.4,572.4c0.5,10.6,0.5,20.8,0,30.9c-0.2,3,1.6,2.7,3.6,2.5c8-0.6,15.9-1.5,23.8-3c2.4-0.5,4.8-0.8,7.8-1.3
		c-1.5,4.3-3.7,7.5-5.8,10.5c-2.6,3.7-5.7,7-8,10.8c-3,4.8-6,7.2-11.9,4c-2.8-1.5-7.1-2.7-9.6-1.5c-4,1.8-6.6,0-10-0.6
		c-3.6-0.7-7.6,0.2-11.4,0.5c-3.1,0.2-3.3-1.4-1.7-3.2c4.4-4.8,2.2-7.8-2.5-10.3c-3.5-1.9-4.4-3.8-2.2-8.1c4.4-8.7,5-18.6,4.7-28.3
		c-0.3-11-2.5-21.8-5.9-32.3c-0.8-2.4-1.4-4.7-4.7-2.4c-2.9,2.1-3.8,0.6-3.6-2.3c0.4-9.3,0.9-18.6,1.1-27.9c0.1-2.6,1.1-3.9,3.2-5
		c11.6-6.4,23.1-13,34.8-19.3c5.7-3.1,11.2-6.5,16.2-10.6c0.8-0.6,1.5-1.7,2.5-1.1c1.1,0.6,1.2,1.9,1.1,3.1
		c-0.5,7.3-1.2,14.6-2.4,21.8c-1.4,8.4-2.4,16.8-4.3,25.1c-0.6,2.8-1.5,3.7-4.7,3c-12.3-2.6-23.2,2-33.8,7.5c-2.7,1.4-2,2.5,0.3,3.6
		c5.7,2.4,11.3,4.8,16.9,7.4c2.2,1,4.2,0.6,6.2-0.3c4.4-2,8.9-3.6,13-6.4c0.9-0.6,2.1-1.3,3.2-0.7c1.3,0.8,0.6,2.1,0.5,3.2
		c-1.4,10.2-2.9,20.4-4.2,30.6c-0.4,2.9-1.1,3.7-4.1,2.2C400.2,573.3,397.4,573.1,394.4,572.4z"/>
	<path class="st1" d="M282.9,511.6c7.9,10.8,16.2,19.6,24.1,28.7c2.6,3,0.1,6.8,2,10.7c5.3-6.4,9-13.1,11.9-20.2
		c2.7-6.6,4.9-13.4,7.3-20.2c0.4-1.2,0.3-3,1.9-3.2c1.7-0.3,1.8,1.7,2.3,2.8c3.7,7.3,7.1,14.7,10.9,21.9c1.8,3.3,1.7,6.1-0.1,9.4
		c-5.7,10.9-10.9,22.1-17.8,32.3c-1.7,2.6-1.6,4.2,0.9,6.2c12.9,10.3,24.9,21.5,34.5,35.1c1,1.4,3.4,2.6,2.2,4.5
		c-0.9,1.5-3.1,0.4-4.7,0.3c-9.3-0.4-18.6-0.8-27.9-1.1c-2.9-0.1-4.3-0.6-4.9-4c-1.4-9-8.4-14.1-14.8-19.4c-2.1-1.8-4.6-1.1-4.5,2.5
		c0.3,8.8-1.8,17.6-0.4,26.4c0.4,2.7,0.1,4-3,2.3c-9.3-5-17.5-11.5-25.7-18c-1.7-1.3-1.3-3-0.7-4.5c8-23.1,7.2-47.1,6.9-71.1
		C283.5,526.4,281.7,519.9,282.9,511.6z"/>
	<path class="st2" d="M68.6,603.7c-16.8,12-34.6,13-52.5,4.6C8.8,604.9,6.5,597,4.3,590c-8.1-25.9-4-50.9,6.8-75.1
		c3.8-8.6,7.5-17.3,13.4-25c4-5.2,8.2-9.9,13.5-13.8c5.8-4.2,12.2-5,17.4-0.7c8.6,7.2,11,17.5,13.5,27.6c-0.5,0.4-1.1,0.8-1.6,1.2
		c-1.7-1.9-3.1-4.2-5-5.7c-4.1-3.3-7.2-2.6-9.9,1.8c-1.9,3-2.7,6.5-2.7,10c-0.1,3.6-1.3,6.2-4.6,8.2c-7.6,4.8-11.3,12.5-14,20.7
		c-3.4,10.2-5.1,20.5-3.4,31.4c2.3,14.8,11.8,29.9,30.9,31.5C61.9,602.3,65.2,603.2,68.6,603.7z"/>
	<path class="st2" d="M272.6,616c-16.4,9.3-33.6,11.4-51.8,6c-2.6-0.7-3.6-2.9-4.7-4.9c-8.3-15.8-7.7-32.2-1.8-48.4
		c4.8-13,12.3-24.7,23.1-33.8c11.3-9.4,27.3-6.9,35.6,5.9c-2.2,1.1-4.2,0.1-6.2-0.2c-7.8-0.9-12.3,2.5-12.9,10.2
		c-0.3,4.8-2.2,8.3-5.8,11.5c-8.5,7.5-12,17.6-12.2,28.5c-0.3,13,8.5,22.4,21.6,23.6c4.9,0.5,9.9,0.1,14.8,0.1
		C272.4,615.1,272.5,615.5,272.6,616z"/>
	<path class="st2" d="M166.3,504.8c6.6,7.3,11.8,14.8,18.4,21.1c2.3,2.2,4.3,4.6,6.6,6.8c2.8,2.7,4,5.9,4.5,9.7
		c3.7,26.9,4.8,53.9,4.4,81c0,3.1-1.1,3.1-3.2,1.6c-9.1-6.8-17.9-13.8-26.3-21.4c-1.1-1-1.9-2-1.3-3.9c6-18.2,4.7-36.7,2.3-55.2
		c-1.5-11.2-3.7-22.3-5.5-33.4C165.9,509.3,165.2,507.6,166.3,504.8z"/>
</g>
</svg>
