<?xml version="1.0" encoding="utf-8"?>
<!-- Generator: Adobe Illustrator 28.4.1, SVG Export Plug-In . SVG Version: 6.00 Build 0)  -->
<svg version="1.1" id="Layer_1" xmlns="http://www.w3.org/2000/svg" xmlns:xlink="http://www.w3.org/1999/xlink" x="0px" y="0px"
	 viewBox="0 0 510.1 187.4" style="enable-background:new 0 0 510.1 187.4;" xml:space="preserve">
<style type="text/css">
	.st0{fill:#F0f0f0;}
</style>
<path class="st0" d="M351,26.9c0-5,0-10,0-15.1c0-1.6-0.8-1.6-2-1.7c-3-0.1-3-0.2-3-3.1c0-2.1-0.9-4.8,0.4-6.1
	c1.4-1.6,4.2-0.5,6.4-0.5c4.5-0.1,9,0,13.4-0.1c1.8,0,2.6,0.6,2.4,2.4c-0.1,1.6-0.1,3.3,0,4.9c0.1,1.7-0.3,2.7-2.3,2.5
	c-0.5-0.1-0.9,0-1.4,0c-0.9,0-1.2,0.5-1.2,1.3c0,0.8,0,1.6,0,2.5c0,12.4,0,24.7,0,37.1c0,2.9,0,2.9-2.9,2.9c-3.2,0-6.4-0.2-9.5,0.1
	c-2.8,0.2-4.5-0.8-6-3.2c-4.7-7.5-9.6-14.8-14.5-22.1c-0.6-0.9-1-2-2.5-3c0,5.8,0,11.3,0,16.8c0,1.3,0.6,1.5,1.8,1.6
	c3.9,0.2,3.9,0.3,3.9,4.3c0,5.6,0,5.6-5.5,5.6c-5.1,0-10.1-0.1-15.2,0c-1.7,0-2.7-0.4-2.5-2.3c0.1-1.3,0-2.6,0-3.9
	c0-3.1,0-3.1,3.1-3.7c0.9-0.2,1.2-0.6,1.3-1.3c0.1-0.6,0-1.2,0-1.8c0-9.3,0-18.6,0-27.9c0-2.5,0-2.6-2.6-2.9c-1.3-0.1-1.9-0.6-1.9-2
	c0-0.1,0-0.2,0-0.4c0.3-2.4-1.1-5.4,0.6-7.1c1.4-1.4,4.3-0.4,6.5-0.4c3.8-0.1,7.5,0.1,11.3-0.1c2.4-0.1,3.8,0.6,5.1,2.7
	c4.5,7.2,9.2,14.2,13.9,21.2c0.6,1,1.3,1.9,2,2.9C350.6,27,350.8,26.9,351,26.9z"/>
<path class="st0" d="M213.4,32.2c0,3.7,0,7.4,0,11.2c4.2,0.5,4.2,0.5,4.2,4.7c0,5.8,0,5.8-5.7,5.8c-5.4,0-10.8-0.1-16.3,0
	c-1.6,0-2.4-0.4-2.3-2.2c0.1-2,0.1-4,0-6c-0.1-1.5,0.4-2.3,2-2.1c1.8,0.2,2.1-0.7,2.1-2.3c-0.1-9.7-0.1-19.3,0-29
	c0-1.8-0.6-2.4-2.2-2.1c-1.6,0.2-2-0.6-1.9-2c0.2-2.5-1.1-5.7,0.6-7.4c1.4-1.4,4.5-0.4,6.8-0.4c6.7-0.1,13.4,0,20.1,0
	c2.7,0,5.4,0.5,8,1.3c6.5,2.1,9.6,6.2,9.8,13c0.2,6.4-2.3,9.7-9.1,12.2c-0.2,0.8,0.5,0.9,1,1.1c4.4,1.9,6.6,5.4,7.1,10.1
	c0.1,1.3,0.3,2.6,0.5,3.8c0.1,0.6,0.7,1,1.3,1c0.7,0,1.1-0.4,1.3-1c0.2-0.6,0.4-1.1,0.4-1.7c0-1.3,0.5-1.8,1.9-1.9
	c3-0.1,3.2,0,3.2,3c0,0.4,0,0.7,0,1.1c-0.2,7.9-3.6,12-10.2,12.4c-8.7,0.5-14.2-3.5-15.3-11.1c-0.3-1.7-0.4-3.5-0.5-5.3
	C220.1,32.8,219.1,31.9,213.4,32.2z M213.2,23.3c2-0.1,3.5-0.1,5.1-0.3c3.5-0.4,5.3-2.3,5.4-5.7c0.1-4-1.6-6.4-5-6.9
	c-1.4-0.2-2.8-0.1-4.2-0.1c-0.9,0-1.2,0.4-1.2,1.3C213.2,15.3,213.2,19.2,213.2,23.3z"/>
<path class="st0" d="M263.3,10.2c-2.4,0.3-3.1-0.7-2.9-2.8c0.2-2.2-0.7-5,0.4-6.5c1.2-1.6,4.2-0.5,6.4-0.6c6.2-0.1,12.5-0.1,18.7,0
	c3.4,0,3.4,0,4.4,3.1c3.7,12.2,7.5,24.5,11.2,36.7c1,3.3,1,3.4,4.4,3.5c1.5,0.1,2.1,0.6,2,2.1c-0.1,2-0.1,4,0,6
	c0.1,1.4-0.3,2.2-1.9,2.2c-8.7-0.1-17.4,0-26.1,0c-1.7,0-2.3-0.7-2.2-2.3c0.1-1.9,0.1-3.8,0-5.7c-0.1-1.8,0.8-2.2,2.3-2.2
	c1.5,0,3,0.3,4.5-0.3c-0.9-4.9-0.9-4.9-5.6-4.9c-2.7,0-5.4,0-8.1,0c-2.8,0-2.9,0-3.7,2.7c-0.2,0.7-0.3,1.4-0.5,2.1
	c1.2,0.7,2.6,0.4,3.8,0.4c1.2,0,1.8,0.5,1.7,1.7c0,0.2,0,0.5,0,0.7c-0.1,2.5,1,5.6-0.4,7.2c-1.5,1.7-4.7,0.6-7.1,0.6
	c-4.7,0.1-9.4,0-14.1,0.1c-1.7,0-2.3-0.6-2.3-2.2c0.1-1.9,0.1-3.8,0-5.7c-0.1-1.7,0.7-2.2,2.3-2.3c3-0.2,3-0.2,3.8-2.9
	C257.1,30.8,260.1,20.8,263.3,10.2z M275.8,14.1c-0.3,0-0.5,0-0.7,0c-1.5,5-2.9,10-4.4,15c3.3,0,6.4,0,9.7,0
	C278.8,23.9,277.3,19,275.8,14.1z"/>
<path class="st0" d="M190.2,0.5c0,5.1,0,9.9,0,14.8c0,1.6-0.7,2-2.1,2c-3.1-0.1-6.1-0.1-9.2,0c-1.6,0.1-1.9-0.7-2-2.1
	c-0.2-4.8-0.2-4.9-4.9-4.8c-2,0-4.5-0.9-5.8,0.4c-1.3,1.3-0.4,3.8-0.5,5.7c-0.1,1.9,0,3.8,0,5.6c-0.1,1.2,0.4,1.7,1.6,1.6
	c3.3-0.1,6.6,0,9.9,0c2.5,0,2.6,0.1,2.6,2.4c0,1.8,0,3.5,0,5.3c-0.1,2.4-0.1,2.5-2.6,2.5c-3.2,0-6.4,0.1-9.5,0c-1.5,0-2.2,0.4-2.1,2
	c0.1,0.6-0.1,1.2,0,1.8c0.2,1.9-0.7,4.1,0.5,5.5c1.1,1.3,3.3,0.4,5.1,0.5c1.5,0,2.2,0.6,2.1,2.1c-0.2,2.6,1,5.7-0.5,7.5
	c-1.4,1.7-4.6,0.6-7,0.6c-6,0.1-12,0-18,0.1c-1.9,0-2.5-0.6-2.4-2.4c0.1-1.4,0-2.8,0-4.2c0-1.1-0.2-2.3,0.3-3.1
	c0.6-1,1.9-0.5,2.9-0.5c0.9-0.1,1.3-0.5,1.3-1.3c0-0.6,0-1.2,0-1.8c0-9.1,0-18.1,0-27.2c0-2.8,0-2.9-2.7-3c-1.3-0.1-1.9-0.5-1.8-1.8
	c0.2-2.6-1-5.8,0.5-7.5c1.4-1.7,4.6-0.6,7.1-0.6c11.9-0.1,23.8,0,35.7,0C188.9,0.3,189.4,0.4,190.2,0.5z"/>
<path class="st0" d="M456.5,128.3c-2.2,9.8-3.1,19.4-5.8,28.7c-1.9,6.5-3.8,13.1-6.5,19.3c-0.5,1.1-0.9,2.4-2.2,2.4
	c-1.6-0.1-1.2-1.7-1.5-2.7c-2.5-8.8-5.1-17.6-8.4-26.1c-3.5-8.9-0.5-17.8,0.6-26.6c2.1-17.6,1.3-34.8-5-51.6
	c-3.7-10,3.4-24.6,13.2-28.7c2.5-1,3.9-0.7,5.7,1.8c11.6,16.4,19.3,34.9,29.5,52c0.8,1.4,1.6,2.8,2.9,4.1
	c1.2-31.2-4.5-61.6-10.4-92.5c3.1,0.8,3.8,2.9,5,4.3c6.3,7.5,12.5,15.2,18.9,22.6c2.8,3.2,4,6.8,4.6,10.8c3.9,28.9,6,57.9,6.7,87
	c0.2,6.6-0.6,13.5,6.4,19.2c-6.1-0.2-5.8,3-5.7,6.4c0.1,5.3,0,10.6,0,15.9c0,0.9,0.4,2.1-0.8,2.6c-1.1,0.4-1.8-0.6-2.5-1.3
	c-4.8-4.8-9.6-9.6-14.4-14.5c-2.2-2.3-4-4.9-6.4-7c-3.3-2.8-5.5-5.7-3.7-10.3c0.8-2.2-0.3-3.7-2.4-4.8c-4.1-2.2-8.1-4.5-12.2-6.8
	C460,131.4,457.7,130.6,456.5,128.3z"/>
<path class="st0" d="M77.6,24.6c2,5.4,3.3,9.5,4.9,13.5c4.2,10.5,9,20.8,14.3,30.8c2.7,5,3,10.5,3.1,16c0.3,9.5,0.8,18.9,1.1,28.4
	c0.1,3,1.2,4.5,4.3,5c6.4,1,12.9,1.3,19.4,1.6c3.2,0.2,3.4-1.9,3.5-4.2c0.3-11.5,0.6-22.9,1-34.4c0.3-8.8,0.7-17.6,1.1-26.4
	c0-1-0.4-2.6,1.4-2.7c1.2,0,1.5,1.1,1.9,2.1c5,12.6,11.3,24.4,18.7,35.8c2.4,3.7,2.1,8,2,12.1c-0.1,5.5-0.4,11-0.8,16.4
	c-0.2,2.9,0.7,4.1,3.8,4.4c11.2,1.1,11.2,1.2,6,11.2c-0.6,1.2-1.2,2.5-2.2,3.3c-7.4,6.1-7.5,14.1-6.5,22.7c0.9,7.7,2,15.4,3.5,22.9
	c-1.3,1.2-2.1,0.3-2.8-0.2c-9.8-6.8-19.7-13.7-29.1-21.1c-2.8-2.2-3.4-4.4-2.4-7.8c3.6-12.4,3.3-11.9-9.1-11.8
	c-11.8,0.1-11.9,0-11,11.9c0.6,8.8,1.4,17.5,2.1,26.6c-3.3-0.2-4.7-2.6-6.5-4c-9.2-7.2-17.5-15.3-25-24.3c-2.5-3-2.8-5.6-1.9-9.5
	c3-12.6,3.5-25.5,3.9-38.5C77,79.8,75,55.6,76.7,31.3C76.9,29.6,77.2,27.8,77.6,24.6z"/>
<path class="st0" d="M394.4,131.6c0.5,10.6,0.5,20.8,0,30.9c-0.2,3,1.6,2.7,3.6,2.5c8-0.6,15.9-1.5,23.8-3c2.4-0.5,4.8-0.8,7.8-1.3
	c-1.5,4.3-3.7,7.5-5.8,10.5c-2.6,3.7-5.7,7-8,10.8c-3,4.8-6,7.2-11.9,4c-2.8-1.5-7.1-2.7-9.6-1.5c-4,1.8-6.6,0-10-0.6
	c-3.6-0.7-7.6,0.2-11.4,0.5c-3.1,0.2-3.3-1.4-1.7-3.2c4.4-4.8,2.2-7.8-2.5-10.3c-3.5-1.9-4.4-3.8-2.2-8.1c4.4-8.7,5-18.6,4.7-28.3
	c-0.3-11-2.5-21.8-5.9-32.3c-0.8-2.4-1.4-4.7-4.7-2.4c-2.9,2.1-3.8,0.6-3.6-2.3c0.4-9.3,0.9-18.6,1.1-27.9c0.1-2.6,1.1-3.9,3.2-5
	c11.6-6.4,23.1-13,34.8-19.3c5.7-3.1,11.2-6.5,16.2-10.6c0.8-0.6,1.5-1.7,2.5-1.1c1.1,0.6,1.2,1.9,1.1,3.1
	c-0.5,7.3-1.2,14.6-2.4,21.8c-1.4,8.4-2.4,16.8-4.3,25.1c-0.6,2.8-1.5,3.7-4.7,3c-12.3-2.6-23.2,2-33.8,7.5c-2.7,1.4-2,2.5,0.3,3.6
	c5.7,2.4,11.3,4.8,16.9,7.4c2.2,1,4.2,0.6,6.2-0.3c4.4-2,8.9-3.6,13-6.4c0.9-0.6,2.1-1.3,3.2-0.7c1.3,0.8,0.6,2.1,0.5,3.2
	c-1.4,10.2-2.9,20.4-4.2,30.6c-0.4,2.9-1.1,3.7-4.1,2.2C400.2,132.5,397.4,132.3,394.4,131.6z"/>
<path class="st0" d="M282.9,70.8c7.9,10.8,16.2,19.6,24.1,28.7c2.6,3,0.1,6.8,2,10.7c5.3-6.4,9-13.1,11.9-20.2
	c2.7-6.6,4.9-13.4,7.3-20.2c0.4-1.2,0.3-3,1.9-3.2c1.7-0.3,1.8,1.7,2.3,2.8c3.7,7.3,7.1,14.7,10.9,21.9c1.8,3.3,1.7,6.1-0.1,9.4
	c-5.7,10.9-10.9,22.1-17.8,32.3c-1.7,2.6-1.6,4.2,0.9,6.2c12.9,10.3,24.9,21.5,34.5,35.1c1,1.4,3.4,2.6,2.2,4.5
	c-0.9,1.5-3.1,0.4-4.7,0.3c-9.3-0.4-18.6-0.8-27.9-1.1c-2.9-0.1-4.3-0.6-4.9-4c-1.4-9-8.4-14.1-14.8-19.4c-2.1-1.8-4.6-1.1-4.5,2.5
	c0.3,8.8-1.8,17.6-0.4,26.4c0.4,2.7,0.1,4-3,2.3c-9.3-5-17.5-11.5-25.7-18c-1.7-1.3-1.3-3-0.7-4.5c8-23.1,7.2-47.1,6.9-71.1
	C283.5,85.6,281.7,79,282.9,70.8z"/>
<path class="st0" d="M68.6,162.9c-16.8,12-34.6,13-52.5,4.6c-7.3-3.4-9.6-11.3-11.8-18.4c-8.1-25.9-4-50.9,6.8-75.1
	c3.8-8.6,7.5-17.3,13.4-25c4-5.2,8.2-9.9,13.5-13.8c5.8-4.2,12.2-5,17.4-0.7c8.6,7.2,11,17.5,13.5,27.6c-0.5,0.4-1.1,0.8-1.6,1.2
	c-1.7-1.9-3.1-4.2-5-5.7c-4.1-3.3-7.2-2.6-9.9,1.8c-1.9,3-2.7,6.5-2.7,10c-0.1,3.6-1.3,6.2-4.6,8.2c-7.6,4.8-11.3,12.5-14,20.7
	c-3.4,10.2-5.1,20.5-3.4,31.4c2.3,14.8,11.8,29.9,30.9,31.5C61.9,161.5,65.2,162.4,68.6,162.9z"/>
<path class="st0" d="M272.6,175.1c-16.4,9.3-33.6,11.4-51.8,6c-2.6-0.7-3.6-2.9-4.7-4.9c-8.3-15.8-7.7-32.2-1.8-48.4
	c4.8-13,12.3-24.7,23.1-33.8c11.3-9.4,27.3-6.9,35.6,5.9c-2.2,1.1-4.2,0.1-6.2-0.2c-7.8-0.9-12.3,2.5-12.9,10.2
	c-0.3,4.8-2.2,8.3-5.8,11.5c-8.5,7.5-12,17.6-12.2,28.5c-0.3,13,8.5,22.4,21.6,23.6c4.9,0.5,9.9,0.1,14.8,0.1
	C272.4,174.2,272.5,174.7,272.6,175.1z"/>
<path class="st0" d="M166.3,64c6.6,7.3,11.8,14.8,18.4,21.1c2.3,2.2,4.3,4.6,6.6,6.8c2.8,2.7,4,5.9,4.5,9.7
	c3.7,26.9,4.8,53.9,4.4,81c0,3.1-1.1,3.1-3.2,1.6c-9.1-6.8-17.9-13.8-26.3-21.4c-1.1-1-1.9-2-1.3-3.9c6-18.2,4.7-36.7,2.3-55.2
	c-1.5-11.2-3.7-22.3-5.5-33.4C165.9,68.5,165.2,66.8,166.3,64z"/>
</svg>
