<?xml version="1.0" encoding="utf-8"?>
<!-- Generator: Adobe Illustrator 28.4.1, SVG Export Plug-In . SVG Version: 6.00 Build 0)  -->
<svg version="1.1" id="Layer_1" xmlns="http://www.w3.org/2000/svg" xmlns:xlink="http://www.w3.org/1999/xlink" x="0px" y="0px"
	 viewBox="0 0 577.21 580.97" style="enable-background:new 0 0 577.21 580.97;" xml:space="preserve">
<style type="text/css">
	.st0{fill:#EE2626;}
</style>
<g>
	<path class="st0" d="M199.77,328.59c12.7,5.99,21.07,16.04,27.21,28.39c4.04,8.11,8.81,15.81,15.4,22.93
		c0.43-11.01,9.32-14.32,16.57-18.62c5.97-3.54,13.69,0,16.45,6.28c1.84,4.22,3.92,8.34,6.03,12.43c2.05,3.97,1.73,7.4-1.99,10.16
		c-5.44,4.04-9.92,9.11-14.78,13.76c-5.72,5.48-12.5,7.25-19.46,3.98c-13.54-6.37-28.1-9.8-41.83-15.54
		c-13.97-5.84-26.46-13.73-35.48-26.28c-1.62-2.25-3.27-4.46-4.36-7.03c-1.71-4.07-4.25-7.43-8.21-9.6
		c-4.12-2.26-4.93-5.94-4.28-10.24c1.22-8.06,2.18-16.41,5.64-23.68c4.86-10.23,5.21-20.89,6.2-31.72
		c1.27-13.93,7.63-25.47,19.03-33.93c2.43-1.8,4.16-3.2,5.24,1.69c2.1,9.5,6.51,18.1,13.16,25.51c-2.39-8.51-4.64-17.03-5.39-25.82
		c-3.28-38.44,24.28-62.91,60.58-56.78c5.37,0.91,10.77,1.88,15.97,4.39c-18.89,0.12-35.29,6.01-48.51,19.98
		c2.36,0.82,3.64-0.77,5.13-1.72c16.58-10.56,34.6-13.75,53.84-10.3c12.65,2.27,21.31,10.27,28.5,20.31
		c1.12,1.57,1.71,3.58,4.46,5.36c-6.02-17.5-17.38-31.74-20.15-49.47c-2.49,4.63-0.03,9.32-0.68,14.28
		c-4.92-2.28-9.56-4.48-14.24-6.57c-4.36-1.95-8.96-3.26-13.65-4.01c-3.41-0.55-4.29-1.7-3.06-5.18c2.45-6.91,4.39-14,6.74-21.66
		c-2.57,1.29-4.65,2.33-6.74,3.38c-0.25-0.25-0.49-0.5-0.74-0.75c1.43-7.31,5.06-13.8,7.71-20.65c9.07-23.46,20.59-45.5,35.73-65.81
		c7.54-10.11,17.83-12.92,28.62-15.68c14.58-3.74,29.32-6.72,44.37-7.99c3.98-0.34,3.48,1.2,2.29,3.52
		c-1.34,2.58-2.88,5.06-4.55,7.95c2.31,0.62,4.58,1.21,6.83,1.83c7.73,2.12,13.26,6.89,16.73,14.06c0.51,1.05,1.78,2.19,0.95,3.35
		c-0.86,1.2-2.27,0.21-3.38-0.03c-7.83-1.7-15.54-1.3-23.23,0.95c-3.29,0.96-4.38,1.89-1.55,4.99c4.76,5.22,9.22,10.73,13.56,16.31
		c4.52,5.81,7.54,12.23,7.18,19.92c-0.45,9.95-7.43,17.76-16.66,18.3c-9.31,0.54-17.44-6.19-19.07-15.88
		c-1.23-7.32,0.06-14.39,2.23-21.37c0.43-1.39,1.43-2.69,0.96-4.98c-8.22,9.43-11.3,19.64-9.19,31.46
		c2.69,14.98,10.13,27.92,17.53,40.86c4.34,7.59,8.96,15.03,13.76,23.06c-3.43-0.62-5.56-3.22-8.97-3.53
		c0.53,3.6,1.07,7.03,1.54,10.47c0.42,3.06,0.93,6.29-0.02,9.18c-1.69,5.14,0.5,6.43,5.07,6.35c1.95-0.03,3.9,0.41,5.77,0.62
		c0.64-1.46-0.31-2.26-0.71-3.19c-3.61-8.32-3.61-8.31,5.04-10.56c22.57-5.85,47.91,7.64,55.43,29.51c0.25,0.73,0.56,1.44,0.74,2.18
		c2.12,8.75,2.11,8.74-6.69,9.28c-1.66,0.1-3.29,0.31-5.54,1.63c3.61,0.63,6.54,1.05,9.43,1.65c16.65,3.46,28.21,12.87,34.03,29.07
		c1.34,3.73,1.11,6.05-2.61,8.76c-11.76,8.55-15.19,20.51-12.51,34.56c1.67-0.21,1.55-1.46,1.84-2.44
		c4.77-16.38,14.59-27.78,31.5-32.45c5.31-1.46,10.61-3.13,15.12-6.58c5.5-4.2,6.42-8.29,1.16-12.5
		c-7.27-5.82-8.78-13.59-10.23-21.84c-0.81-4.63,0.62-7.32,5.05-8.82c4.23-1.44,11.18-0.67,13.38,2.19
		c3.09,4.03,2.96,8.59,1.17,13.13c-0.97,2.46-3.17,3.25-5.58,3.36c-2.4,0.11-4.8,0.02-8,0.02c3.39,3.13,6.77,3.49,10.25,3.03
		c2.13-0.28,3.67,0.32,5.53,1.39c3.34,1.92,5.85,3.58,4.45,8.2c-0.8,2.64,1.07,5.23,3.12,6.83c5.21,4.08,6.53,10.24,9.09,15.75
		c0.41,0.88,0.5,1.67,0.08,2.62c-4.48,10.27-8,20.93-13.09,30.97c-9.07,17.93-24.49,27.36-42.94,32.96
		c-1.76,0.53-3.55,0.98-5.31,1.52c-4.51,1.38-8.78,1.29-12.46-2.12c-8.79-8.14-19.61-11.8-31.06-14.04
		c-2.32-0.45-4.38-1.43-6.34-2.63c-7.88-4.84-8.31-6.43-5.03-14.84c3.92-10.05,7.05-20.32,7.68-31.19c0.19-3.31,2.12-6.06,2.73-9.23
		c3.73-19.24-4.25-34.17-17.52-47c-2.5-2.42-4.77-5.68-9.53-6.13c6.63,7.59,12.19,15.2,15.57,24.13c3.42,9.05,5.63,18.31,1.72,27.78
		c-6.35,15.39-24.71,23.17-41.72,17.87c-5.03-1.56-9.8-3.6-13.9-6.98c-1.31-1.07-2.29-1.92-1.63-4.17
		c6.94-23.73-0.02-44.18-15.33-62.47c-6.9-8.24-15.29-15.17-21.36-24.18c-3.03-4.49-5.12-9.37-6.73-14.49
		c-1.93,0.4-1.14,1.69-1.09,2.59c0.76,12.32,6.57,22.24,14.93,30.85c7.2,7.41,14.17,14.95,18.85,24.31
		c4.42,8.84,6.67,18.16,6.25,28.04c-0.64,15.2-11.57,26.85-27.52,29.46c-26.82,4.39-52.82-8.79-65.85-33.19
		c-1.12-2.09-0.23-3.04,0.93-4.35c1.64-1.86,3.8-3.45,4.32-7.96c-17.19,15.02-35.99,17.2-56.67,12.01
		c3.21,3.16,11.81,6.96,17.6,7.81c6.23,0.91,12.48,1.82,18.77,0.21c2.35-0.6,3.59-0.25,3.1,2.98
		c-3.06,19.95-16.83,34.93-36.78,39.63c-0.89,0.21-1.75,0.58-2.62,0.88c-9.91,0.91-19.84,0.46-29.89,0.63
		C192.75,325.68,196.26,327.14,199.77,328.59z M359,69.88c-5.07-11.68-14.55-12.48-24.17-1.28C343.85,64.98,351.73,63.67,359,69.88z
		"/>
	<path class="st0" d="M132.02,341.59c-9.66,5.9-12.28,15.69-13.68,25.82c-2.64,19.17,0.6,37.66,7.87,55.45
		c8.31,20.31,22.55,35.7,40.65,47.68c6.66,4.41,13.62,8.36,21.06,11.39c1.03,0.42,2.96,0.7,2.42,2.2c-0.64,1.79-2.13,0.46-3.4,0.23
		c-15.62-2.73-30.22-8.14-43.64-16.6c-25.76-16.24-42.41-39.55-52.8-67.82c-6.44-17.53-9.82-35.56-8.96-54.21
		c1.11-24.1,7.48-46.41,24.76-64.28c11.28-11.66,24.68-19.49,41.52-20.63c-6.14-3.6-17.65-4-26.79-1.6
		c-17.21,4.53-27.89,16.75-36.67,31.02c-11.98,19.46-16.92,41.07-17.59,63.65c-1.11,37.56,9.63,72.1,27.65,104.66
		c0.65,1.17,1.79,2.14,1.59,4.74c-2.75-3.17-5.14-5.69-7.27-8.42c-20.72-26.64-33.37-56.81-38.63-90.04
		c-4.15-26.25-2.69-52.12,7.36-77c9.98-24.7,26.06-43.32,52.81-50.66c5.64-1.55,11.4-2.46,17.23-2.8c5.67-0.33,11.3,0.17,16.83,1.38
		c0.25-1-0.2-1.39-0.73-1.67c-18.73-9.78-37.94-10.77-56.47-0.56c-21.85,12.04-36.08,31.18-45.24,54.09
		c-11.4,28.52-15.66,58.34-14.91,88.9c0.47,18.97,4.27,37.46,9.41,55.68c0.41,1.44,1.36,2.8,0.67,4.57
		c-1.63-0.23-1.92-1.77-2.53-2.79c-14.54-24.03-24.01-50.01-29.83-77.41c-4.83-22.74-6.06-45.75-3.26-68.74
		c3.53-28.97,13.47-55.51,34.1-77c30.85-32.14,84.01-40.62,121.55-3.09c2.13,2.13,4.69,3.84,6.78,5.53
		c0.56-1.39-0.91-2.99-1.86-4.67c-11.96-21.07-30.03-33.45-53.94-36.71c-25.12-3.42-47.25,4.92-67.38,19.23
		c-14.49,10.29-25.28,24.14-35.44,38.51c-0.63,0.89-0.75,2.46-2.89,2.33c2.96-8.82,6.29-17.25,11.07-25.11
		c14.14-23.19,32.28-42.1,58.29-51.5c34.73-12.54,66.59-7.8,93.68,18.62c12.71,12.4,19.91,27.81,22.61,45.4
		c0.69,4.52-2.5,7.83-2.7,11.94c-0.22,4.41-2.59,6.33-6.52,8.49c-17.02,9.34-25.49,24.8-26.68,43.63
		c-0.66,10.54-2.64,20.15-6.56,30.01c-6.24,15.69-5.44,31.53,4.16,46.29c5.9,9.08,12.53,17.52,20.47,24.86
		c1.96,1.81,2.23,2.88,0.76,5.23c-7.62,12.2-7.59,25.63-5.67,39.26c0.29,2.05,0.84,4.07,0.84,6.25c-6.04-6.95-9.7-15.11-12.96-23.5
		c-3.3-8.51-4.58-17.5-6.43-27.62c-5.8,8.61-5.83,17.26-5.45,26.02c0.38,8.75,2.27,17.23,4.4,25.76
		c-5.44-6.59-8.86-14.19-11.7-22.11c-8.5-23.73-7.71-47.61-1.2-71.59c0.05-0.36,0.1-0.73,0.16-1.09
		C132.65,341.33,132.34,341.46,132.02,341.59z"/>
	<path class="st0" d="M326.4,334.53c9.84-10.96,21.91-18.66,35.34-24.47c2.21-0.96,3.89-0.86,5.97,0.13
		c9.31,4.43,17.59,10,22.54,20.18c0.6-5.16-1.63-9.25-10.71-20.21c13.78,3.02,26.41,1.96,38.77-4.61
		c-1.54,16.96-8.51,30.97-17.71,44.06c-6.29,8.94-12.19,18.08-16.56,28.15c-1.22,2.8-1.52,5.4-0.86,8.43
		c1.74,7.93,4.02,15.87,4.13,23.98c0.36,26.27-5.81,50.18-26.39,68.48c-9.67,8.6-12.71,19.35-9.38,31.72
		c2.37,8.79,6.32,16.92,11.17,24.67c3.89,6.23,9.33,9.39,16.46,10.37c6.67,0.91,13.42,1.38,19.94,3.28
		c5.73,1.67,10.67,4.4,14.12,9.34c-0.77,1.7-1.95,0.88-2.89,0.8c-8.3-0.68-16.61-0.61-24.92-0.5c-6.18,0.08-12.22-0.51-18.19-2.3
		c-4.63-1.39-9.06-1.51-13.71,1.12c-3.96,2.24-8.89,2.12-13.46,2.68c-2.26,0.28-3.08-0.72-2.4-3.03c1.25-4.21,3.45-7.65,7.77-9.06
		c4.33-1.41,4.51-4,3.27-7.81c-4.6-14.13-11.18-27.25-19.47-39.55c-0.52-0.76-1.05-1.52-1.56-2.28c-4.9-7.27-4.8-8.21,1.49-14.39
		c7.88-7.74,9.8-13.85,4.39-23.99c-4.42-8.28-3.56-14.55,2.06-21.3c3.06-3.67,4.76-8.21,6.43-12.68c0.5-1.34,1.63-2.7,0.29-4.69
		c-5.94,5.9-10.98,12.38-15.91,18.93c-5.45,7.25-10.77,14.59-16.71,21.46c-6.6,7.64-14.09,14.26-23,18.98
		c-10.32,5.46-17.14,13.85-21.6,24.31c-4.36,10.24-6.96,20.9-7.46,32.11c-0.26,5.83,1.84,9.66,7.04,12.2
		c7.3,3.57,12.1,9.28,13.86,17.36c0.22,1,1.28,2.09,0.15,2.92c-0.99,0.74-2.03-0.27-2.94-0.7c-6.66-3.16-13.33-6.31-19.92-9.62
		c-3.32-1.67-5.11-1.27-6.22,2.64c-2.21,7.76-7.17,13.73-13.59,19.33c-2.11-7.31-1.61-14.17,0.03-21.58
		c-10.17,1.94-19.67,4.91-29.82,4.9c-0.09-2.57,1.6-4.24,3.11-5.78c4.13-4.2,8.72-8.27,14.5-9.45c13.2-2.7,18.38-12.16,21.56-23.68
		c3-10.85,4.39-21.91,4.97-33.16c0.59-11.5,5.53-21.71,11.68-31.15c3.35-5.14,4.69-10.2,4.77-16.29
		c0.28-20.93,6.75-39.79,20.14-56.12c2.57-3.14,6.53-5.61,6.71-10.15c0.3-7.71-0.18-15.33-4.17-22.32
		c-4.03-7.07-9.97-12.03-16.94-15.87c-8.05-4.43-15.18-9.85-20.62-17.4c-1.74-2.41-1.84-3.89,0.48-6.13
		c7.94-7.67,10.34-12.25,16.09-28.65c18.75,23.7,43.42,30.78,73.63,25.52c-6.66,6.5-13.12,11.08-16.79,18.13
		c-2.5,3.16-4.4,6.6-4.67,10.91C322.6,339.97,324.5,337.25,326.4,334.53z M379.89,361.99c-0.68-9.48-10.89-20-18.66-20.27
		c-0.72-0.02-1.47,0.34-2.18,0.6c-6.95,2.63-13.45,6.1-19.15,10.88c-3.4,2.85-6.72,5.9-8.68,11.65
		c8.68-7.59,17.48-12.04,27.36-14.38c1.68-0.4,3.22-0.72,4.93-0.05C369.56,352.78,375.46,355.32,379.89,361.99z"/>
	<path class="st0" d="M540.25,257.47c-2.46,0.86-4.86,1.94-7.38,2.52c-4.98,1.15-7.58-1.55-6.32-6.27
		c1.05-3.95,1.01-7.91,0.02-11.87c-1.93-7.75-1.8-8.11,4.82-12.87c0.48-0.34,0.92-0.74,1.51-1.22c-4.92-0.77-7.41,0.9-13.07,8.6
		c-2.89-2.63-3.62-6.38-4.9-9.74c-4.18-11.04-8.28-22.13-12.07-33.31c-2.27-6.69-6.81-10.68-13.39-11.98
		c-14.84-2.95-23.92-11.96-29.53-25.65c-7.5-18.32-11.86-37.43-15.45-56.77c-0.81-4.37-1.52-8.77-2.13-13.18
		c-0.15-1.1-0.51-2.83,1-3.17c1.67-0.38,1.71,1.46,2.08,2.51c3.41,9.86,6.77,19.74,10.12,29.62c4.24,12.51,9.18,24.73,14.48,36.83
		c1.19,2.72,2.48,2.84,4.95,2.1c3.18-0.95,2.5-2.84,1.71-4.96c-8.3-22.02-15.02-44.52-20.25-67.46c-0.31-1.35-1.87-3.4,0.08-4.02
		c2.07-0.66,2.4,1.98,2.97,3.37c6.52,16.06,12.92,32.17,19.39,48.26c2.06,5.13,4.37,10.16,6.34,15.32c1.3,3.4,3.12,3.71,6.38,2.48
		c3.67-1.39,2.08-3.29,1.24-5.35c-8.7-21.17-17.01-42.47-22.99-64.6c-0.46-1.7-2.46-4.42-0.08-5.32c2.2-0.83,2.65,2.45,3.39,4.04
		c8.84,19.09,17.53,38.25,26.27,57.39c0.7,1.54,1.51,3.03,2.15,4.6c1.14,2.79,2.53,4.24,5.93,2.76c3.76-1.63,1.52-3.84,0.81-5.6
		c-7.49-18.66-15.15-37.26-22.69-55.9c-1.32-3.26-2.34-6.64-3.4-10c-0.29-0.93-0.98-2.21,0.49-2.77c1.2-0.46,1.51,0.77,1.93,1.51
		c12.33,21.62,24.98,43.08,34.39,66.21c4.94,12.16,4.55,23.99-3.16,35.06c-4.97,7.14-5.23,14.22-0.88,21.93
		c6.26,11.1,12.06,22.47,17.82,33.85c1.13,2.24,1.99,2.09,3.76,1.12c3.36-1.82,6.85-2.59,10.62-1.07c1.66,0.67,3.45,1.59,3.76,3.14
		c0.93,4.74,4.08,7.4,7.74,9.98c1.87,1.31,3.11,3.85,2.81,6.09c-0.52,3.91,1.12,6.77,3.12,9.75c3.86,5.74,1.89,11.13-2.03,15.63
		c-2.98,3.43-2.61,6.15-0.9,9.84c4.71,10.16,9.11,20.47,13.55,30.75c1.86,4.32,2.88,8.78,0.77,13.35c-1.74,3.79-4.57,6.32-8.86,6.3
		c-4.92-0.02-8.51-2.52-10.44-7.05c-4.81-11.3-9.52-22.63-14.28-33.96c-0.94-2.25-1.9-4.5-2.94-6.96c5-0.94,9.95-1.74,13.38-6.53
		c-3.18-0.74-5.14,1.42-7.5,2c-3.94,0.96-7.79,1.16-10.61-2.29c-2.44-2.98-2.68-6.57-0.96-9.98c1.51-3.01,5.08-3.87,7.31-6.19
		c0.34-0.41,0.68-0.83,1.03-1.24C541.41,256.63,540.77,256.72,540.25,257.47z"/>
	<path class="st0" d="M238.41,124.23c2.23,0.11,5.15,0.21,8.05,0.45c0.97,0.08,2.24,0.05,2.25,1.68c0.01,1.21-0.38,2.02-1.49,2.59
		c-9.79,5.02-20.2,8.8-31.05,9.28c-5.37,0.24-10.91-3.69-16.39-5.67c-13.38-4.84-26.47-10.61-40.5-13.46
		c-8.7-1.77-17.35-1.54-25.87,1.56c-3.2,1.16-6.66,2.73-10.19,0.63c-1.34-0.8-2.97-1.7-2.74-3.37c0.2-1.42,1.95-1.9,3.26-2.24
		c3.57-0.92,7.16-1.74,10.77-2.48c2.43-0.5,3.7-1.88,4.06-4.31c0.83-5.63,1.78-11.05-2.05-16.31c-2.56-3.52,0.27-7.36,1.12-11.01
		c0.3-1.29,1.57-2.76,0.39-3.82c-1.25-1.12-2.6,0.34-3.67,0.98c-2.8,1.67-5.75,2.89-8.92,3.58c-1.68,0.37-3.23-0.21-3.89-1.71
		c-0.65-1.5,0.58-2.62,1.75-3.38c5.67-3.65,11.28-7.41,17.1-10.8c4.12-2.4,12.34,1.18,13.99,5.72c0.62,1.72-0.14,2.78-1.34,4.01
		c-3.42,3.51-6.6,7.25-9.96,10.83c-1.57,1.67-1.25,2.51,0.62,3.81c6.69,4.65,7.15,6.48,4.44,14.35c-0.4,1.16-0.71,2.35-1.09,3.52
		c-0.72,2.24,0.11,3.01,2.42,3c11.27-0.02,22.27,2.11,33.21,4.49c3.06,0.67,3.98-0.45,4.05-3.07c0.11-4.45,0.23-8.91,0.16-13.36
		c-0.04-2.62-1.12-3.66-4.11-2.9c-6.23,1.59-12.59,2.7-18.89,4c-2.62,0.54-5.23,0.54-7.68-0.58c-1.34-0.61-3.03-1.18-2.93-3.14
		c0.1-2.09,1.97-2.18,3.36-2.5c8.67-1.98,17.35-3.91,26.06-5.72c1.72-0.36,3.38-0.44,4.01-2.43c0.37-1.15,0.2-2.23-0.83-2.86
		c-1.59-0.98-3.25-0.56-4.86,0.09c-7.64,3.12-9.84,2.13-12.92-5.46c-2.71-6.66-4.17-13.77-7.59-20.19c-1.36-2.56,0.31-3.75,2.8-3.71
		c6.67,0.11,13.1-1.51,19.62-2.48c1.43-0.21,2.78-0.49,3.73-1.54c1.26-1.38,1.32-3.17,0.6-4.75c-0.79-1.71-2.19-0.38-3.23-0.16
		c-3.17,0.67-6.33,1.57-9.55,0.64c-1.44-0.42-3.07-1.21-3.21-2.96c-0.16-2.07,1.83-2.32,3.19-2.72c3.09-0.89,6.26-1.51,9.39-2.25
		c2.33-0.55,4.04-1.58,3.44-4.42c-0.56-2.63-2.01-4.1-4.85-3.71c-2.89,0.39-5.76,0.84-8.65,1.19c-2.36,0.29-2.38,2.27-2.49,3.8
		c-0.22,2.97-1.3,5.67-2.17,8.44c-0.87,2.75-2.91,3.83-5.7,3.48c-2.71-0.33-3.95-2.22-4.37-4.67c-0.57-3.3,0.08-6.5,1.76-9.34
		c1.91-3.22,2.98-6.68,3.73-10.29c0.23-1.11-0.14-2.65,1.65-2.84c1.28-0.14,2.54,0.04,3.2,1.32c1.78,3.49,4.75,3.32,7.93,2.72
		c13.56-2.53,27.12-5.02,40.68-7.54c5.58-1.04,14.24,5.48,14.76,11.1c0.23,2.46-1.34,3.29-3.29,3.61
		c-6.53,1.05-12.34,3.4-16.88,8.46c-1.3,1.44-3.35,1.34-5.18,1.58c-2.13,0.28-4.27,0.55-6.34,1.08c-2.09,0.53-3.01,2.14-2.61,4.23
		c0.43,2.23,2.36,1.72,3.73,1.48c3.33-0.56,6.61-1.39,9.91-2.1c6.16-1.33,12.58,1.8,15.26,7.38c0.68,1.41,0.35,2.7-0.27,3.97
		c-3.03,6.2-5.99,12.43-9.16,18.56c-3.13,6.06-4.62,6.46-11.17,4.19c-2.36-0.81-4.81-0.62-7.2,0.37c-2.12,0.88-1.86,2.65-1.7,4.29
		c0.21,2.08,1.74,1.64,3.15,1.43c4.41-0.65,8.69-1.72,12.88-3.3c6.22-2.35,12.07-1.37,17.26,2.8c1.43,1.15,2.73,2.64,1.87,4.79
		c-0.82,2.06-2.65,2.32-4.55,2.44c-8.56,0.54-17.11,1.18-25.67,1.61c-3.8,0.19-5.83,1.31-5.67,5.74c0.18,4.87-0.5,9.78-0.95,14.66
		c-0.27,2.94,0.56,4.52,3.77,5.02c5.14,0.81,10.15,2.45,15.3,3.1C222.7,123.67,230.17,124.74,238.41,124.23z M201.84,72.93
		c1.6-0.32,3.96-0.54,4.88-3.18c0.76-2.16,1.72-4.27,2.17-6.49c0.56-2.78,2.83-6.45,1.02-8.21c-2.52-2.44-6.32,0.04-9.54,0.69
		c-0.15,0.03-0.3,0.04-0.45,0.08c-1.15,0.27-2.07,0.92-1.95,2.16c0.12,1.3,1.24,1.58,2.38,1.67c0.76,0.06,1.54,0.05,2.27,0.25
		c2.34,0.65,4.52,1.86,4.46,4.51c-0.06,2.64-2.29,3.25-4.61,3.35c-0.75,0.03-1.51,0.29-2.23,0.52c-1.39,0.46-2.63,1.2-2.28,2.91
		C198.29,72.91,199.72,73.08,201.84,72.93z M214.35,25.23c-5.14-0.58-9.74,0.9-14.4,1.56c-0.97,0.14-3.51-0.54-2.65,1.81
		c0.53,1.45,1.05,3.92,3.56,3.52c1.51-0.24,2.95-0.76,4.52-0.52C211.41,32.52,212.07,32.07,214.35,25.23z M179.03,65.8
		c2.06-0.92,5-0.77,7.09-2.84c1.04-1.03,1.53-2.13,0.97-3.66c-0.64-1.76-1.91-1.14-3.01-0.93c-2.23,0.43-4.42,1.03-6.65,1.47
		c-1.77,0.35-2.7,0.98-2.05,3.07C175.92,64.64,176.29,66.17,179.03,65.8z M183.09,70.64c-1.28,1.11-4.66-0.83-5.09,2.03
		c-0.21,1.39,0.46,5.06,3.72,4.63c2.5-0.33,5.43-1.03,5.8-4.23C187.87,70.14,185.36,70.86,183.09,70.64z"/>
	<path class="st0" d="M265.23,78.36c5.03-6.84,10.05-13.68,15.08-20.51c13.38-18.16,29.34-33.82,46.63-48.21
		c3.06-2.55,5.87-5.42,8.7-8.23c1.5-1.49,2.92-1.82,4.93-0.92c29.99,13.41,59.85,27.09,87.93,44.28c0.7,0.43,1.86,0.54,1.77,2.68
		c-58-6.39-111.88,9.3-164.38,32.09C265.67,79.15,265.45,78.75,265.23,78.36z"/>
	<path class="st0" d="M257.6,344.22c-9.61,1.54-17.28,5.65-24.33,12.23c-1.02-7.59-2.61-14.51-6.71-20.55
		c-0.73-1.08-0.18-1.69,0.72-2.15c0.68-0.35,1.41-0.61,2.13-0.89c3.73-1.45,7.35-5.16,10.54-4.95c2.47,0.16,4.53,5.65,6.9,8.67
		C249.53,339.99,253.71,341.49,257.6,344.22z"/>
	<path class="st0" d="M191.07,435.03c-9.51-12.69-14.87-26.2-15.09-41.61c-0.04-2.51,0.95-2.88,3.08-1.64
		c4.11,2.39,8.31,4.64,12.5,6.9c0.98,0.53,1.9,0.76,1.31,2.32c-4.03,10.56-3.51,21.35-1.41,32.2
		C191.53,433.55,191.3,433.97,191.07,435.03z"/>
	<path class="st0" d="M138.46,31.47c5.35-1.46,8.77,2.13,11.37,6.76c1.32,2.35,1.51,5.23-0.58,7.26c-1.95,1.89-4.36,0.73-6.43-0.28
		c-4.18-2.05-7.57-5.16-10.69-8.54c-0.98-1.06-2.43-2.32-1.74-3.97c0.74-1.76,2.63-1.14,4.1-1.22
		C135.56,31.43,136.64,31.47,138.46,31.47z"/>
	<path class="st0" d="M263.09,163.25c-0.4,0.34-0.79,0.67-1.19,1.01c-0.47-0.75-0.34-1.34,0.45-1.77
		C262.6,162.75,262.85,163,263.09,163.25z"/>
</g>
</svg>
